<svg width="1129" height="757" viewBox="0 0 1129 757" fill="none" xmlns="http://www.w3.org/2000/svg">
<g clip-path="url(#clip0_208_25)">
<path d="M1129 0H0V757H1129V0Z" fill="#F7CEDC"/>
<path d="M803.679 373.496H794.958V474.939H803.679V373.496Z" fill="#FFCEB6"/>
<path d="M559.832 485.151L557.05 482.303C543.132 481.211 521.984 475.611 508.589 459.027C507.805 458.062 507.088 457.044 506.44 455.982C505.239 454.044 504.395 451.907 503.947 449.671C501.67 437.706 514.007 428.998 519.816 427.574C527.127 425.802 539.704 428.106 544.773 429.185C546.162 429.484 546.992 429.681 546.992 429.681C547.899 429.751 548.809 429.751 549.715 429.681C550.338 429.645 551.007 429.599 551.725 429.542C551.955 429.542 552.187 429.52 552.429 429.495C552.568 429.495 552.702 429.495 552.845 429.474C555.604 429.28 558.373 429.314 561.125 429.577C561.912 429.659 562.731 429.774 563.576 429.913C564.035 429.995 564.499 430.088 564.972 430.186C565.354 430.268 565.735 430.36 566.126 430.459C566.415 430.53 566.704 430.609 566.992 430.69C567.584 430.852 568.172 431.027 568.76 431.223C568.785 431.235 568.813 431.242 568.841 431.248C569.114 431.338 569.385 431.431 569.658 431.537V431.524C573.893 433.096 577.819 435.407 581.253 438.348C584.452 441.059 587.975 443.884 591.637 446.698C596.538 450.452 601.685 454.191 606.72 457.595C606.72 457.595 608.546 457.944 611.271 458.29L611.306 458.001V424.301H678.088C688.978 447.504 706.04 489.603 718.133 523.372C730.712 558.483 771.136 619.812 779.337 640.309C789.097 664.674 789.097 678.251 789.097 678.251H645.463C645.528 672.895 644.962 667.55 643.778 662.327L649.012 638.851C644.947 638.955 638.546 638.851 638.546 638.851V638.873C637.809 638.712 634.146 637.797 619.216 633.894C596.439 627.941 547.05 565.974 547.05 565.974C542.062 563.635 533.317 552.705 528.141 545.837C525.561 542.413 523.989 538.333 523.603 534.059H523.522C523.522 534.059 497.57 531.055 483.628 526.601C483.628 526.601 461.418 520.765 455.227 518.09C455.227 518.09 416.42 503.65 406.613 497.964C396.807 492.278 401.441 468.445 421.072 474.143C432.635 477.489 442.823 480.881 443.296 481.045C447.719 484.232 453.029 485.942 458.475 485.931H487.195C487.195 485.931 520.665 493.238 526.96 494.639L527.777 494.685C528.44 491.638 529.508 488.694 530.951 485.931H559.249L559.832 485.151Z" fill="#FFCEB6"/>
<path d="M781.145 405.932C781.226 405.818 781.304 405.704 781.387 405.598C781.094 408.498 780.003 411.261 778.234 413.576C777.04 415.291 775.322 416.57 773.34 417.221C771.357 417.871 769.217 417.858 767.244 417.181L760.437 425.843L752.814 416.139L759.621 407.478C759.049 405.081 759.007 402.59 759.496 400.176C759.984 397.761 760.992 395.483 762.449 393.499C763.979 391.434 766.217 390.011 768.733 389.502C768.631 389.594 768.541 389.696 768.46 389.805C766.753 392.147 765.834 394.971 765.834 397.871C765.834 400.77 766.753 403.594 768.46 405.936C769.171 406.962 770.119 407.801 771.223 408.38C772.328 408.96 773.557 409.262 774.803 409.262C776.05 409.262 777.278 408.959 778.382 408.379C779.486 407.799 780.434 406.959 781.145 405.932Z" fill="#CCEFF6"/>
<path d="M775.046 440.976C776.442 442.886 777.194 445.191 777.194 447.559C777.194 449.927 776.442 452.232 775.046 454.141C774.466 454.981 773.691 455.666 772.789 456.14C771.887 456.613 770.884 456.86 769.865 456.86C768.847 456.86 767.843 456.613 766.941 456.14C766.038 455.666 765.264 454.981 764.683 454.141C763.296 452.284 762.547 450.026 762.549 447.705L762.457 447.83L752.789 435.547L745.166 425.843L738.36 417.181C736.383 417.86 734.24 417.876 732.255 417.226C730.269 416.576 728.548 415.296 727.352 413.579C725.589 411.261 724.503 408.499 724.21 405.6C724.29 405.706 724.36 405.82 724.452 405.936C725.161 406.964 726.109 407.805 727.214 408.386C728.318 408.966 729.547 409.269 730.793 409.269C732.041 409.269 733.269 408.966 734.373 408.386C735.478 407.805 736.426 406.964 737.135 405.936C738.844 403.595 739.766 400.771 739.766 397.871C739.766 394.97 738.844 392.146 737.135 389.805C737.055 389.701 736.971 389.599 736.881 389.502C739.389 390.013 741.62 391.436 743.143 393.499C744.603 395.482 745.613 397.76 746.103 400.174C746.595 402.588 746.554 405.081 745.986 407.478L752.791 416.139L760.414 425.843L770.072 438.126L769.979 438.255C770.973 438.297 771.945 438.564 772.823 439.035C773.7 439.506 774.46 440.17 775.046 440.976Z" fill="#CCEFF6"/>
<path d="M745.155 425.84L752.789 435.544L749.313 439.969L745.155 425.84Z" fill="#006B99"/>
<path d="M745.155 425.84L749.313 439.969L743.122 447.83L743.018 447.705C743.023 450.027 742.273 452.287 740.88 454.145C740.301 454.983 739.526 455.668 738.624 456.141C737.722 456.614 736.718 456.861 735.7 456.861C734.681 456.861 733.678 456.614 732.776 456.141C731.874 455.668 731.099 454.983 730.519 454.145C729.131 452.231 728.383 449.926 728.383 447.56C728.383 445.194 729.131 442.89 730.519 440.976C731.106 440.17 731.867 439.506 732.746 439.033C733.623 438.56 734.596 438.291 735.59 438.246L735.487 438.118L745.155 425.84Z" fill="#CCEFF6"/>
<path d="M743.78 166.21H735.462V262.988H743.78V166.21Z" fill="#FFCEB6"/>
<path d="M705.028 213.062C705.567 213.671 705.912 214.429 706.015 215.237C706.119 216.044 705.977 216.865 705.607 217.59L705.042 218.634L699.868 228.209C700.404 229.4 700.722 230.68 700.804 231.984C701.104 236.594 698.575 240.509 695.166 240.719C691.758 240.93 688.746 237.387 688.444 232.776C688.142 228.166 690.674 224.253 694.083 224.041C694.714 223.998 695.346 224.084 695.943 224.295L700.57 215.751L701.701 213.654C701.828 213.341 702.032 213.065 702.294 212.851C702.557 212.639 702.868 212.496 703.201 212.436C703.533 212.377 703.875 212.403 704.195 212.513C704.514 212.623 704.801 212.811 705.028 213.062Z" fill="#CCEFF6"/>
<path d="M678.094 424.301H611.312V300.625C611.312 300.625 621.141 303.647 633.708 325.254C646.275 346.863 666.047 399.103 676.825 421.612C677.239 422.472 677.672 423.362 678.094 424.301Z" fill="#FFCEB6"/>
<path d="M638.685 638.897L638.546 638.851C638.546 638.851 644.947 638.955 649.012 638.851L643.779 662.327C641.745 651.361 638.695 639.41 638.557 638.864C638.599 638.878 638.641 638.89 638.685 638.897Z" fill="#006B99"/>
<path d="M611.312 424.301V457.977L611.277 458.267C608.555 457.92 606.725 457.57 606.725 457.57C601.691 454.166 596.54 450.427 591.642 446.674L591.803 446.466C592.613 444.553 593.03 442.497 593.028 440.419V424.315L611.312 424.301Z" fill="#CCEFF6"/>
<path d="M593.028 229.751V213.1C593.028 208.973 591.393 205.016 588.483 202.098C585.572 199.181 581.626 197.54 577.509 197.54H485.461C481.344 197.54 477.398 199.181 474.487 202.098C471.577 205.016 469.942 208.973 469.942 213.1V247.027C469.942 249.071 470.344 251.094 471.124 252.982C471.903 254.87 473.046 256.584 474.487 258.03C475.929 259.474 477.639 260.62 479.522 261.402C481.404 262.184 483.423 262.586 485.461 262.586H577.501C579.539 262.586 581.557 262.184 583.44 261.402C585.323 260.62 587.034 259.474 588.475 258.03C589.915 256.584 591.059 254.87 591.838 252.982C592.618 251.094 593.02 249.071 593.02 247.027L593.028 229.751ZM448.979 329.341V187.564C448.98 180.153 451.915 173.046 457.142 167.806C462.368 162.566 469.456 159.622 476.846 159.62H480.185C480.185 165.203 482.396 170.557 486.334 174.506C490.272 178.454 495.612 180.672 501.181 180.672H553.412C558.981 180.668 564.321 178.45 568.26 174.503C572.198 170.556 574.414 165.203 574.42 159.62H583.431C587.092 159.618 590.718 160.341 594.1 161.744C597.482 163.149 600.556 165.206 603.145 167.802C605.734 170.397 607.788 173.477 609.19 176.868C610.59 180.259 611.312 183.893 611.312 187.564V424.301H593.028V406.501C593.028 402.374 591.393 398.417 588.483 395.498C585.572 392.581 581.626 390.941 577.509 390.941H485.461C481.344 390.941 477.398 392.581 474.487 395.498C471.577 398.417 469.942 402.374 469.942 406.501V440.419C469.942 444.546 471.577 448.504 474.487 451.422C477.398 454.339 481.344 455.979 485.461 455.979H506.448C507.096 457.042 507.814 458.059 508.597 459.025C521.984 475.608 543.133 481.201 557.058 482.301L559.841 485.148L559.263 485.937H476.846C469.454 485.933 462.364 482.985 457.139 477.741C451.913 472.499 448.977 465.389 448.979 457.977V329.341ZM469.964 329.341V343.724C469.964 347.85 471.599 351.808 474.509 354.725C477.42 357.644 481.367 359.282 485.483 359.282H577.524C581.639 359.282 585.586 357.644 588.496 354.725C591.407 351.808 593.041 347.85 593.041 343.724V309.804C593.041 305.678 591.407 301.72 588.496 298.803C585.586 295.884 581.639 294.245 577.524 294.245H485.461C481.344 294.245 477.398 295.884 474.487 298.803C471.577 301.72 469.942 305.678 469.942 309.804L469.964 329.341Z" fill="#CCEFF6"/>
<path d="M593.028 424.301V440.405C593.03 442.483 592.613 444.539 591.803 446.452L591.642 446.659C587.981 443.845 584.457 441.02 581.259 438.309C577.825 435.368 573.899 433.058 569.663 431.485C570.717 429.653 571.335 427.601 571.472 425.491C571.608 423.38 571.259 421.267 570.451 419.313C569.643 417.359 568.396 415.618 566.81 414.224C565.223 412.83 563.338 411.821 561.3 411.274C559.263 410.727 557.126 410.657 555.058 411.071C552.989 411.484 551.043 412.368 549.369 413.656C547.694 414.943 546.34 416.6 545.406 418.497C544.473 420.393 543.987 422.48 543.986 424.596C543.989 426.154 544.257 427.703 544.781 429.171C539.713 428.092 527.135 425.789 519.824 427.56C514.015 428.984 501.678 437.692 503.955 449.657C504.403 451.892 505.247 454.03 506.448 455.967H485.461C481.344 455.967 477.398 454.328 474.487 451.41C471.577 448.493 469.942 444.535 469.942 440.409V406.501C469.942 402.374 471.577 398.417 474.487 395.498C477.398 392.581 481.344 390.941 485.461 390.941H577.501C581.617 390.941 585.564 392.581 588.475 395.498C591.384 398.417 593.02 402.374 593.02 406.501V424.301H593.028Z" fill="#CCEFF6"/>
<path d="M469.942 329.34V309.804C469.942 305.677 471.577 301.72 474.487 298.802C477.398 295.885 481.344 294.244 485.461 294.244H577.501C581.617 294.244 585.564 295.885 588.475 298.802C591.384 301.72 593.02 305.677 593.02 309.804V343.723C593.02 347.85 591.384 351.807 588.475 354.725C585.564 357.643 581.617 359.283 577.501 359.283H485.461C481.344 359.283 477.398 357.643 474.487 354.725C471.577 351.807 469.942 347.85 469.942 343.723V329.34ZM514.711 329.641C514.71 326.914 513.903 324.25 512.392 321.982C510.881 319.716 508.732 317.95 506.22 316.907C503.707 315.864 500.943 315.591 498.276 316.124C495.609 316.656 493.159 317.968 491.236 319.896C489.313 321.824 488.003 324.281 487.473 326.955C486.942 329.629 487.214 332.401 488.254 334.92C489.294 337.439 491.056 339.592 493.317 341.108C495.577 342.623 498.235 343.433 500.955 343.434C502.761 343.434 504.551 343.078 506.221 342.386C507.891 341.692 509.408 340.677 510.687 339.396C511.965 338.115 512.979 336.594 513.671 334.921C514.363 333.246 514.719 331.453 514.719 329.641H514.711Z" fill="#CCEFF6"/>
<path d="M593.028 229.751V247.027C593.028 249.071 592.626 251.094 591.846 252.981C591.067 254.868 589.924 256.584 588.483 258.028C587.041 259.474 585.331 260.62 583.448 261.402C581.566 262.184 579.547 262.586 577.509 262.586H485.461C483.422 262.586 481.404 262.184 479.522 261.402C477.639 260.62 475.929 259.474 474.487 258.028C473.046 256.584 471.903 254.868 471.123 252.981C470.344 251.094 469.942 249.071 469.942 247.027V213.108C469.942 208.981 471.577 205.024 474.487 202.106C477.398 199.188 481.344 197.549 485.461 197.549H577.501C581.617 197.549 585.564 199.188 588.475 202.106C591.384 205.024 593.02 208.981 593.02 213.108L593.028 229.751ZM571.499 230.051C571.499 227.323 570.692 224.657 569.179 222.388C567.668 220.119 565.52 218.352 563.005 217.308C560.492 216.264 557.726 215.991 555.058 216.523C552.389 217.055 549.937 218.368 548.013 220.297C546.089 222.227 544.779 224.685 544.249 227.36C543.718 230.036 543.99 232.809 545.032 235.329C546.073 237.85 547.835 240.004 550.098 241.519C552.361 243.035 555.02 243.844 557.741 243.844C561.388 243.841 564.886 242.387 567.464 239.8C570.043 237.214 571.492 233.708 571.493 230.051H571.499Z" fill="#CCEFF6"/>
<path d="M480.184 159.62H574.419C574.413 165.203 572.198 170.556 568.26 174.503C564.321 178.45 558.981 180.668 553.412 180.672H501.181C495.612 180.672 490.272 178.454 486.333 174.506C482.396 170.557 480.184 165.203 480.184 159.62Z" fill="#006B99"/>
<path d="M571.493 424.601C571.489 427.019 570.858 429.393 569.658 431.491L568.824 431.218C568.796 431.213 568.769 431.205 568.743 431.194C568.155 430.986 567.567 430.811 566.976 430.661C566.687 430.58 566.399 430.501 566.11 430.429C565.718 430.325 565.337 430.244 564.956 430.156C564.482 430.066 564.019 429.974 563.559 429.883C562.727 429.733 561.926 429.629 561.109 429.548C558.358 429.279 555.588 429.245 552.83 429.444C552.691 429.444 552.557 429.465 552.413 429.465C552.17 429.49 551.94 429.501 551.708 429.511C550.983 429.557 550.312 429.603 549.698 429.652C548.793 429.721 547.883 429.721 546.976 429.652C546.976 429.652 546.16 429.455 544.758 429.154C544.233 427.686 543.964 426.139 543.963 424.579C543.937 422.751 544.273 420.938 544.953 419.241C545.633 417.546 546.642 416.002 547.922 414.702C549.202 413.4 550.727 412.366 552.409 411.661C554.091 410.955 555.895 410.592 557.718 410.592C559.541 410.592 561.346 410.955 563.028 411.661C564.709 412.366 566.233 413.4 567.514 414.702C568.794 416.002 569.803 417.546 570.483 419.241C571.162 420.938 571.5 422.751 571.474 424.579L571.493 424.601Z" fill="white"/>
<path d="M557.741 243.845C565.339 243.845 571.499 237.668 571.499 230.051C571.499 222.434 565.339 216.258 557.741 216.258C550.144 216.258 543.984 222.434 543.984 230.051C543.984 237.668 550.144 243.845 557.741 243.845Z" fill="white"/>
<path d="M487.194 485.932H530.957C529.513 488.694 528.446 491.639 527.782 494.685L526.965 494.64C520.665 493.239 487.194 485.932 487.194 485.932Z" fill="#006B99"/>
<path d="M500.962 315.851C503.685 315.848 506.345 316.656 508.609 318.17C510.873 319.684 512.638 321.838 513.681 324.358C514.723 326.879 514.997 329.652 514.468 332.329C513.937 335.005 512.628 337.464 510.704 339.394C508.78 341.323 506.328 342.638 503.66 343.171C500.99 343.704 498.224 343.432 495.71 342.387C493.195 341.343 491.046 339.575 489.534 337.306C488.022 335.037 487.216 332.369 487.216 329.64C487.218 325.985 488.667 322.48 491.243 319.894C493.821 317.308 497.316 315.854 500.962 315.851Z" fill="white"/>
<path d="M468.761 159.62H476.846C469.456 159.622 462.368 162.566 457.141 167.806C451.915 173.046 448.98 180.153 448.979 187.564V329.341H440.892V187.564C440.893 180.153 443.83 173.046 449.055 167.806C454.281 162.566 461.369 159.622 468.761 159.62Z" fill="#006B99"/>
<path d="M476.846 485.932H468.761C461.366 485.93 454.274 482.985 449.046 477.743C443.817 472.5 440.879 465.391 440.879 457.977V329.341H448.979V457.977C448.98 465.389 451.915 472.497 457.14 477.738C462.367 482.98 469.455 485.927 476.846 485.932Z" fill="#006B99"/>
<path d="M432.401 408.147V443.523C432.401 443.523 419.799 441.358 402.66 438.498C385.522 435.637 385.508 415.022 394.667 408.147C403.826 401.27 431.222 408.147 431.222 408.147H432.401Z" fill="#FFCEB6"/>
<path d="M378.647 317.725V336.324H373.044C370.978 336.324 369.938 339.473 371.41 341.327L375.372 346.319L364.93 359.474L360.965 354.481C359.497 352.63 357.003 353.935 357.003 356.545V363.606H342.23V356.545C342.23 353.938 339.734 352.63 338.266 354.481L334.305 359.474L323.864 346.319L327.825 341.327C329.293 339.473 328.253 336.324 326.192 336.324H320.583V317.725H326.192C328.258 317.725 329.299 314.565 327.825 312.722L323.864 307.722L334.305 294.567L338.266 299.557C339.734 301.399 342.23 300.103 342.23 297.486V290.432H357.003V297.496C357.003 300.112 359.497 301.411 360.965 299.568L364.926 294.578L375.367 307.722L371.406 312.712C369.938 314.554 370.978 317.715 373.039 317.715L378.647 317.725ZM358.375 327.026C358.375 320.922 354.449 315.977 349.622 315.977C344.795 315.977 340.856 320.922 340.856 327.026C340.856 333.13 344.781 338.062 349.622 338.062C354.462 338.062 358.375 333.107 358.375 327.026Z" fill="#CCEFF6"/>
<path d="M304.45 274.243H294.978V384.442H304.45V274.243Z" fill="#FFCEB6"/>
<path d="M304.45 274.243L397.161 282.349V376.335L304.45 384.442" stroke="#006B99" stroke-width="3.704" stroke-linecap="round" stroke-linejoin="round"/>
<path d="M304.45 274.243H294.978V384.442H304.45V274.243Z" stroke="#006B99" stroke-width="3.704" stroke-linecap="round" stroke-linejoin="round"/>
<path d="M735.462 166.21L654.049 183.753V272.089L735.462 262.986" stroke="#006B99" stroke-width="3.704" stroke-linecap="round" stroke-linejoin="round"/>
<path d="M743.78 166.21H735.462V262.988H743.78V166.21Z" stroke="#006B99" stroke-width="3.704" stroke-linecap="round" stroke-linejoin="round"/>
<path d="M794.958 373.496L709.601 380.956V467.47L794.958 474.942" stroke="#006B99" stroke-width="3.704" stroke-linecap="round" stroke-linejoin="round"/>
<path d="M803.679 373.496H794.958V474.939H803.679V373.496Z" stroke="#006B99" stroke-width="3.704" stroke-linecap="round" stroke-linejoin="round"/>
<path d="M574.42 159.62H583.431C587.092 159.618 590.717 160.341 594.1 161.744C597.482 163.149 600.555 165.206 603.145 167.802C605.734 170.397 607.788 173.477 609.19 176.868C610.59 180.259 611.312 183.893 611.312 187.564V457.977" stroke="#006B99" stroke-width="3.704" stroke-linecap="round" stroke-linejoin="round"/>
<path d="M478.705 159.62H480.184" stroke="#006B99" stroke-width="3.704" stroke-linecap="round" stroke-linejoin="round"/>
<path d="M468.761 485.931C461.366 485.93 454.274 482.985 449.046 477.742C443.817 472.501 440.879 465.391 440.879 457.977V187.564C440.879 183.893 441.601 180.259 443.002 176.868C444.404 173.477 446.457 170.397 449.047 167.802C451.635 165.206 454.709 163.149 458.092 161.744C461.474 160.341 465.1 159.618 468.761 159.62" stroke="#006B99" stroke-width="3.704" stroke-linecap="round" stroke-linejoin="round"/>
<path d="M559.255 485.932H530.957H487.195H478.705" stroke="#006B99" stroke-width="3.704" stroke-linecap="round" stroke-linejoin="round"/>
<path d="M476.846 485.931C469.455 485.927 462.367 482.98 457.14 477.738C451.915 472.496 448.98 465.389 448.979 457.977V187.564C448.98 180.153 451.915 173.046 457.142 167.806C462.368 162.566 469.456 159.622 476.846 159.62" stroke="#006B99" stroke-width="3.704" stroke-linecap="round" stroke-linejoin="round"/>
<path d="M443.304 481.056C439.928 478.634 437.176 475.438 435.28 471.735C433.383 468.032 432.396 463.928 432.401 459.765V185.779C432.4 182.341 433.075 178.938 434.388 175.763C435.699 172.589 437.622 169.704 440.047 167.275C442.472 164.844 445.349 162.919 448.518 161.605C451.685 160.292 455.08 159.617 458.507 159.62H478.72" stroke="#006B99" stroke-width="3.704" stroke-linecap="round" stroke-linejoin="round"/>
<path d="M478.707 485.931H458.508C453.062 485.941 447.751 484.232 443.329 481.045" stroke="#006B99" stroke-width="3.704" stroke-linecap="round" stroke-linejoin="round"/>
<path d="M574.419 159.62C574.413 165.203 572.198 170.556 568.26 174.503C564.321 178.45 558.981 180.668 553.412 180.672H501.181C495.612 180.672 490.272 178.454 486.333 174.506C482.396 170.557 480.184 165.203 480.184 159.62H574.419Z" stroke="#006B99" stroke-width="3.704" stroke-linecap="round" stroke-linejoin="round"/>
<path d="M577.503 262.581H485.461C481.344 262.581 477.398 260.941 474.487 258.024C471.577 255.105 469.942 251.148 469.942 247.021V213.108C469.942 208.981 471.577 205.024 474.487 202.106C477.398 199.188 481.344 197.549 485.461 197.549H577.501C581.617 197.549 585.564 199.188 588.475 202.106C591.384 205.024 593.02 208.981 593.02 213.108V247.027C593.018 251.152 591.383 255.108 588.474 258.025C585.564 260.941 581.618 262.58 577.503 262.581Z" stroke="#006B99" stroke-width="3.704" stroke-linecap="round" stroke-linejoin="round"/>
<path d="M577.503 359.277H485.461C481.344 359.277 477.398 357.638 474.487 354.719C471.577 351.801 469.942 347.844 469.942 343.718V309.804C469.942 305.677 471.577 301.72 474.487 298.802C477.398 295.885 481.344 294.244 485.461 294.244H577.501C581.617 294.244 585.564 295.885 588.475 298.802C591.384 301.72 593.02 305.677 593.02 309.804V343.723C593.018 347.849 591.383 351.804 588.474 354.721C585.564 357.638 581.618 359.276 577.503 359.277Z" stroke="#006B99" stroke-width="3.704" stroke-linecap="round" stroke-linejoin="round"/>
<path d="M506.46 455.973H485.461C481.344 455.973 477.398 454.334 474.487 451.416C471.577 448.498 469.942 444.541 469.942 440.414V406.501C469.942 402.374 471.577 398.417 474.487 395.498C477.398 392.581 481.344 390.941 485.461 390.941H577.501C581.617 390.941 585.564 392.581 588.475 395.498C591.384 398.417 593.02 402.374 593.02 406.501V440.419C593.021 442.497 592.605 444.553 591.795 446.466" stroke="#006B99" stroke-width="3.704" stroke-linecap="round" stroke-linejoin="round"/>
<path d="M405.385 329.341H432.401H440.879H448.965H469.95H480.185" stroke="#006B99" stroke-width="3.704" stroke-linecap="round" stroke-linejoin="round"/>
<path d="M544.781 429.177C539.713 428.098 527.135 425.794 519.824 427.566C514.015 428.99 501.678 437.698 503.955 449.663C504.403 451.898 505.247 454.036 506.448 455.973C507.096 457.036 507.814 458.053 508.597 459.02C521.984 475.602 543.132 481.196 557.058 482.296L559.84 485.143C566.609 492.103 583.76 509.71 588.323 514.623C588.323 514.623 601.629 566.919 616.343 581.672C636.256 601.649 647.653 607.345 660.448 609.255" stroke="#006B99" stroke-width="3.704" stroke-linecap="round" stroke-linejoin="round"/>
<path d="M551.725 429.522C550.998 429.568 550.329 429.614 549.715 429.662" stroke="#006B99" stroke-width="3.704" stroke-linecap="round" stroke-linejoin="round"/>
<path d="M563.565 429.894C562.731 429.744 561.932 429.64 561.114 429.558C558.362 429.29 555.593 429.255 552.835 429.454" stroke="#006B99" stroke-width="3.704" stroke-linecap="round" stroke-linejoin="round"/>
<path d="M566.116 430.426C565.723 430.323 565.342 430.24 564.961 430.153" stroke="#006B99" stroke-width="3.704" stroke-linecap="round" stroke-linejoin="round"/>
<path d="M568.748 431.19C568.16 430.983 567.572 430.808 566.981 430.657" stroke="#006B99" stroke-width="3.704" stroke-linecap="round" stroke-linejoin="round"/>
<path d="M629.629 470.575C621.571 467.038 613.895 462.68 606.725 457.57C601.691 454.166 596.54 450.427 591.642 446.674C587.981 443.859 584.457 441.034 581.259 438.323C577.825 435.382 573.899 433.071 569.663 431.499L568.83 431.226" stroke="#006B99" stroke-width="3.704" stroke-linecap="round" stroke-linejoin="round"/>
<path d="M606.725 457.581C606.725 457.581 608.552 457.931 611.277 458.277C616.913 459.006 626.43 459.77 631.72 457.581" stroke="#006B99" stroke-width="3.704" stroke-linecap="round" stroke-linejoin="round"/>
<path d="M552.435 429.465C549.454 432.741 535.062 443.709 536.916 457.559" stroke="#006B99" stroke-width="3.704" stroke-linecap="round" stroke-linejoin="round"/>
<path d="M503.955 449.665C509.384 453.74 522.721 456.216 527.943 453.277C527.943 453.277 531.017 437.586 537.922 432.364" stroke="#006B99" stroke-width="3.704" stroke-linecap="round" stroke-linejoin="round"/>
<path d="M789.103 678.259C789.103 678.259 789.103 664.674 779.342 640.317C771.142 619.82 730.717 558.489 718.139 523.381C706.046 489.612 688.976 447.495 678.094 424.309C677.666 423.371 677.239 422.48 676.825 421.61C666.047 399.098 646.287 346.871 633.708 325.252C621.13 303.632 611.312 300.625 611.312 300.625" stroke="#006B99" stroke-width="3.704" stroke-linecap="round" stroke-linejoin="round"/>
<path d="M638.685 638.897L638.546 638.851V638.873C638.685 639.418 641.734 651.369 643.768 662.335C644.952 667.558 645.518 672.903 645.453 678.259" stroke="#006B99" stroke-width="3.704" stroke-linecap="round" stroke-linejoin="round"/>
<path d="M523.992 526.601C523.622 528.472 523.467 530.38 523.53 532.287C523.53 532.88 523.565 533.469 523.611 534.059C523.997 538.332 525.569 542.413 528.15 545.837C533.323 552.704 542.071 563.635 547.058 565.974C547.058 565.974 596.447 627.937 619.225 633.893C634.157 637.797 637.819 638.711 638.554 638.873C638.596 638.884 638.639 638.892 638.682 638.897C638.698 638.901 638.713 638.901 638.728 638.897" stroke="#006B99" stroke-width="3.704" stroke-linecap="round" stroke-linejoin="round"/>
<path d="M523.53 534.059C523.53 534.059 497.579 531.056 483.637 526.601C483.637 526.601 461.426 520.765 455.235 518.09C455.235 518.09 416.428 503.65 406.621 497.963C396.815 492.278 401.449 468.445 421.081 474.141C432.643 477.489 442.831 480.881 443.305 481.045" stroke="#006B99" stroke-width="3.704" stroke-linecap="round" stroke-linejoin="round"/>
<path d="M452.186 493.481C452.186 493.481 450.825 499.619 450.49 502.689" stroke="#006B99" stroke-width="3.704" stroke-linecap="round" stroke-linejoin="round"/>
<path d="M487.993 499.272C487.993 499.272 486.631 508.883 486.293 511.953" stroke="#006B99" stroke-width="3.704" stroke-linecap="round" stroke-linejoin="round"/>
<path d="M638.546 638.851C638.546 638.851 644.947 638.955 649.012 638.851L643.779 662.327" stroke="#006B99" stroke-width="3.704" stroke-linecap="round" stroke-linejoin="round"/>
<path d="M431.222 408.147C431.222 408.147 403.803 401.268 394.667 408.147C385.53 415.025 385.519 435.637 402.66 438.497C419.801 441.358 432.401 443.523 432.401 443.523" stroke="#006B99" stroke-width="3.704" stroke-linecap="round" stroke-linejoin="round"/>
<path d="M530.957 485.932C529.514 488.694 528.446 491.639 527.782 494.685C527.348 496.57 527.075 498.487 526.966 500.418" stroke="#006B99" stroke-width="3.704" stroke-linecap="round" stroke-linejoin="round"/>
<path d="M487.194 485.932C487.194 485.932 520.665 493.239 526.96 494.64" stroke="#006B99" stroke-width="3.704" stroke-linecap="round" stroke-linejoin="round"/>
<path d="M514.719 329.64C514.719 332.368 513.913 335.033 512.401 337.3C510.89 339.566 508.743 341.333 506.23 342.376C503.718 343.42 500.953 343.692 498.285 343.16C495.618 342.629 493.168 341.316 491.246 339.388C489.322 337.46 488.013 335.004 487.481 332.33C486.951 329.656 487.222 326.884 488.262 324.365C489.302 321.845 491.063 319.692 493.325 318.177C495.585 316.661 498.243 315.852 500.962 315.851C502.77 315.851 504.558 316.207 506.227 316.9C507.896 317.592 509.413 318.609 510.69 319.889C511.967 321.17 512.981 322.69 513.673 324.363C514.364 326.036 514.719 327.829 514.719 329.64Z" stroke="#006B99" stroke-width="3.704" stroke-linecap="round" stroke-linejoin="round"/>
<path d="M641.769 229.751H611.312H593.027H578.533" stroke="#006B99" stroke-width="3.704" stroke-linecap="round" stroke-linejoin="round"/>
<path d="M557.741 243.845C565.339 243.845 571.499 237.668 571.499 230.051C571.499 222.434 565.339 216.258 557.741 216.258C550.144 216.258 543.984 222.434 543.984 230.051C543.984 237.668 550.144 243.845 557.741 243.845Z" stroke="#006B99" stroke-width="3.704" stroke-linecap="round" stroke-linejoin="round"/>
<path d="M699.52 424.301H678.094H611.312H593.027H578.533" stroke="#006B99" stroke-width="3.704" stroke-linecap="round" stroke-linejoin="round"/>
<path d="M544.781 429.175C546.17 429.476 547 429.673 547 429.673C547.907 429.743 548.817 429.743 549.723 429.673C550.345 429.636 551.015 429.589 551.733 429.534C551.963 429.534 552.195 429.511 552.437 429.487C552.576 429.487 552.71 429.487 552.854 429.465C555.611 429.271 558.381 429.306 561.133 429.569C561.92 429.651 562.739 429.765 563.584 429.904C564.044 429.987 564.507 430.08 564.98 430.178C565.361 430.259 565.743 430.352 566.135 430.45C566.423 430.522 566.712 430.601 567 430.682C567.591 430.844 568.179 431.018 568.768 431.215C568.794 431.226 568.821 431.234 568.849 431.239C569.121 431.33 569.393 431.423 569.665 431.529V431.515C570.719 429.682 571.337 427.632 571.475 425.521C571.611 423.411 571.262 421.296 570.453 419.343C569.645 417.389 568.4 415.647 566.813 414.254C565.226 412.86 563.34 411.85 561.304 411.303C559.265 410.757 557.13 410.688 555.06 411.101C552.991 411.513 551.045 412.398 549.371 413.685C547.698 414.973 546.342 416.629 545.408 418.527C544.476 420.424 543.99 422.51 543.99 424.625C543.993 426.177 544.261 427.716 544.781 429.175Z" stroke="#006B99" stroke-width="3.704" stroke-linecap="round" stroke-linejoin="round"/>
<path d="M378.647 317.725H373.044C370.978 317.725 369.938 314.565 371.41 312.722L375.367 307.722L364.926 294.567L360.965 299.557C359.497 301.399 357.003 300.103 357.003 297.486V290.432H342.23V297.496C342.23 300.112 339.734 301.411 338.266 299.568L334.305 294.578L323.864 307.722L327.825 312.722C329.293 314.565 328.253 317.725 326.192 317.725H320.583V336.324H326.192C328.258 336.324 329.299 339.473 327.825 341.327L323.864 346.319L334.305 359.474L338.266 354.481C339.734 352.63 342.23 353.935 342.23 356.545V363.606H357.003V356.545C357.003 353.938 359.497 352.63 360.965 354.481L364.926 359.474L375.367 346.319L371.406 341.327C369.938 339.473 370.978 336.324 373.039 336.324H378.642V317.725H378.647Z" stroke="#006B99" stroke-width="3.704" stroke-linecap="round" stroke-linejoin="round"/>
<path d="M358.375 327.026C358.375 333.115 354.45 338.062 349.622 338.062C344.795 338.062 340.856 333.115 340.856 327.026C340.856 320.936 344.781 315.977 349.622 315.977C354.462 315.977 358.375 320.922 358.375 327.026Z" stroke="#006B99" stroke-width="3.704" stroke-linecap="round" stroke-linejoin="round"/>
<path d="M700.56 215.75C698.335 214.74 695.896 214.29 693.456 214.44C688.121 214.786 683.487 218.622 680.313 224.169C676.995 230.209 675.476 237.078 675.935 243.959C675.957 244.316 675.98 244.688 676.016 245.051" stroke="#006B99" stroke-width="3.704" stroke-linecap="round" stroke-linejoin="round"/>
<path d="M714.406 240.219C714.406 239.858 714.385 239.501 714.361 239.127C714.052 233.188 712.08 227.456 708.667 222.591C707.617 221.132 706.4 219.804 705.042 218.63" stroke="#006B99" stroke-width="3.704" stroke-linecap="round" stroke-linejoin="round"/>
<path d="M714.406 240.219L725.841 239.477C725.82 239.119 725.82 238.759 725.795 238.385C725.298 228.95 722.173 219.842 716.775 212.098C710.574 203.529 701.829 198.398 692.475 199.012C683.477 199.604 675.725 206.02 670.666 215.33C665.934 224.356 663.805 234.527 664.522 244.698C664.546 245.068 664.579 245.427 664.604 245.79L676.038 245.051" stroke="#006B99" stroke-width="3.704" stroke-linecap="round" stroke-linejoin="round"/>
<path d="M705.042 218.633L705.607 217.59C705.977 216.865 706.119 216.044 706.015 215.237C705.912 214.428 705.567 213.671 705.028 213.061C704.801 212.809 704.514 212.618 704.193 212.507C703.873 212.396 703.528 212.369 703.194 212.428C702.86 212.487 702.547 212.631 702.284 212.846C702.02 213.06 701.816 213.338 701.69 213.654L700.56 215.751L695.932 224.295C695.336 224.084 694.703 223.997 694.073 224.04C690.663 224.262 688.135 228.177 688.434 232.775C688.734 237.375 691.75 240.941 695.156 240.719C698.562 240.498 701.094 236.586 700.794 231.984C700.712 230.68 700.394 229.4 699.858 228.208L705.042 218.633Z" stroke="#006B99" stroke-width="3.704" stroke-linecap="round" stroke-linejoin="round"/>
<path d="M692.463 199.014L693.457 214.441" stroke="#006B99" stroke-width="3.704" stroke-linecap="round" stroke-linejoin="round"/>
<path d="M670.737 215.379L679.098 224.087" stroke="#006B99" stroke-width="3.704" stroke-linecap="round" stroke-linejoin="round"/>
<path d="M716.348 212.401L709.348 222.118" stroke="#006B99" stroke-width="3.704" stroke-linecap="round" stroke-linejoin="round"/>
<path d="M760.437 425.841L767.243 417.179C769.217 417.857 771.359 417.871 773.343 417.221C775.325 416.572 777.045 415.292 778.24 413.575C780.008 411.261 781.1 408.498 781.391 405.597C781.31 405.704 781.232 405.818 781.149 405.932C780.439 406.962 779.491 407.802 778.386 408.383C777.28 408.964 776.05 409.267 774.802 409.267C773.554 409.267 772.324 408.964 771.219 408.383C770.113 407.802 769.165 406.962 768.455 405.932C766.75 403.592 765.831 400.767 765.831 397.868C765.831 394.969 766.75 392.145 768.455 389.803C768.536 389.695 768.627 389.593 768.727 389.5C766.211 390.008 763.973 391.431 762.443 393.496C760.986 395.481 759.978 397.759 759.49 400.172C759.002 402.587 759.044 405.079 759.615 407.475L752.808 416.136" stroke="#006B99" stroke-width="3.704" stroke-linecap="round" stroke-linejoin="round"/>
<path d="M745.155 425.84L735.487 438.124L735.591 438.252C734.596 438.297 733.623 438.566 732.746 439.039C731.867 439.51 731.106 440.175 730.518 440.982C729.132 442.894 728.384 445.198 728.384 447.564C728.384 449.929 729.132 452.234 730.518 454.147C731.099 454.985 731.873 455.672 732.776 456.144C733.678 456.618 734.682 456.866 735.7 456.866C736.718 456.866 737.722 456.618 738.624 456.144C739.526 455.672 740.301 454.985 740.88 454.147C742.273 452.292 743.023 450.032 743.018 447.71L743.122 447.836L749.313 439.975L752.789 435.55" stroke="#006B99" stroke-width="3.704" stroke-linecap="round" stroke-linejoin="round"/>
<path d="M752.789 416.136L745.983 407.475C746.551 405.077 746.591 402.586 746.101 400.171C745.61 397.756 744.6 395.479 743.141 393.496C741.618 391.434 739.387 390.009 736.878 389.5C736.968 389.597 737.052 389.698 737.132 389.803C738.841 392.142 739.763 394.968 739.763 397.868C739.763 400.768 738.841 403.593 737.132 405.932C736.423 406.962 735.475 407.802 734.371 408.383C733.267 408.964 732.038 409.267 730.791 409.267C729.544 409.267 728.316 408.964 727.211 408.383C726.107 407.802 725.159 406.962 724.45 405.932C724.358 405.818 724.286 405.704 724.208 405.597C724.5 408.497 725.587 411.258 727.35 413.575C728.546 415.293 730.267 416.574 732.252 417.224C734.238 417.873 736.381 417.858 738.357 417.179L745.163 425.841L752.787 435.545L762.454 447.828L762.547 447.703C762.544 450.023 763.293 452.281 764.681 454.139C765.262 454.978 766.036 455.663 766.938 456.137C767.841 456.61 768.844 456.858 769.862 456.858C770.88 456.858 771.883 456.61 772.786 456.137C773.688 455.663 774.462 454.978 775.043 454.139C776.439 452.23 777.191 449.923 777.191 447.557C777.191 445.189 776.439 442.884 775.043 440.974C774.459 440.167 773.701 439.502 772.825 439.029C771.949 438.556 770.979 438.289 769.985 438.244L770.077 438.115L760.42 425.832L752.789 416.136Z" stroke="#006B99" stroke-width="3.704" stroke-linecap="round" stroke-linejoin="round"/>
<path d="M745.155 425.84L749.313 439.969" stroke="#006B99" stroke-width="3.704" stroke-linecap="round" stroke-linejoin="round"/>
</g>
<defs>
<clipPath id="clip0_208_25">
<rect width="1129" height="757" fill="white"/>
</clipPath>
</defs>
</svg>
