<svg width="1128" height="756" viewBox="0 0 1128 756" fill="none" xmlns="http://www.w3.org/2000/svg">
<g clip-path="url(#clip0_213_273)">
<path d="M1128 0H0V756H1128V0Z" fill="#FAE173"/>
<path d="M524.717 444.574C524.374 443.037 524.384 441.443 524.748 439.911C527.584 427.33 527.155 408.765 529.988 393.671C532.822 378.577 542.161 380.275 552.487 376.659C559.079 374.34 565.248 370.778 572.268 367.509C576.451 365.507 580.78 363.829 585.218 362.489C598.364 358.609 631.365 372.554 647.349 375.119C651.125 375.72 654.847 376.628 658.478 377.833L658.551 377.613C658.551 377.613 731.443 327.54 750.5 313.827C769.557 300.114 808.677 272.272 808.677 272.272L853.233 375.115C853.233 375.115 765.752 433.063 752.806 444.488C739.861 455.913 711.387 470.433 711.387 470.433L711.157 470.379C709.419 478.357 703.637 487.459 687.696 496.48L686.735 496.816C684.098 490.732 680.762 484.978 676.795 479.669C660.897 450.359 596.057 406.928 590.452 407.862C584.847 408.796 569.365 410.839 569.365 410.839C568.228 414.267 563.468 416.185 563.468 416.185H563.06C563.138 426.554 559.583 436.622 553.017 444.635C542.646 457.75 526.851 454.029 524.717 444.574Z" fill="#FFCEB6"/>
<path d="M705.064 186.587C706.083 191.263 706.477 196.054 706.236 200.833C706.186 201.671 705.961 202.487 705.576 203.231C705.19 203.974 704.653 204.629 703.999 205.15C703.346 205.672 702.589 206.05 701.779 206.26C700.969 206.469 700.125 206.506 699.3 206.366L677.638 202.782C676.311 202.569 675.095 201.91 674.192 200.912C673.288 199.914 672.751 198.637 672.669 197.292C672.583 193.72 671.296 190.281 669.017 187.533C668.085 186.448 667.04 185.468 665.901 184.608L659.667 222.461L668.569 227.859C680.815 235.094 688.684 243.486 692.176 253.039C695.668 262.58 696.593 272.875 694.86 282.889C693.762 289.939 691.265 296.698 687.516 302.765C683.943 308.543 679.332 313.61 673.919 317.71C668.44 321.819 662.18 324.762 655.523 326.355C651.202 327.417 646.76 327.907 642.313 327.813L639.329 345.939C639.164 346.943 638.803 347.905 638.266 348.769C637.73 349.633 637.029 350.382 636.203 350.976C635.378 351.568 634.444 351.992 633.454 352.223C632.465 352.454 631.44 352.487 630.439 352.321C629.437 352.155 628.477 351.793 627.616 351.255C626.753 350.718 626.005 350.015 625.414 349.187C624.823 348.361 624.4 347.424 624.169 346.433C623.938 345.441 623.905 344.414 624.071 343.411L627.02 325.507C616.379 322.674 606.972 316.393 600.264 307.645C596.998 303.512 594.438 298.865 592.692 293.892C592.157 292.413 591.676 290.894 591.259 289.317C590.167 285.216 589.583 280.994 589.521 276.749C589.489 275.37 589.762 274 590.318 272.738C590.875 271.477 591.701 270.354 592.739 269.448C593.778 268.542 595.004 267.877 596.327 267.499C597.651 267.122 599.042 267.041 600.4 267.264L609.551 268.789L616.045 269.859C617.969 270.184 619.743 271.102 621.122 272.485C622.5 273.869 623.414 275.648 623.736 277.576C624.189 280.244 624.961 282.848 626.037 285.331C627.315 288.264 629.638 290.616 632.552 291.925L639.582 249.227L631.813 244.804C622.177 239.539 614.222 231.65 608.866 222.048C603.828 212.401 602.223 201.32 604.317 190.634C605.418 183.569 607.974 176.812 611.825 170.792C615.492 165.059 620.274 160.125 625.885 156.284C631.243 152.44 637.346 149.766 643.8 148.433C647.927 147.57 652.14 147.201 656.354 147.332L658.976 131.39C659.311 129.362 660.436 127.55 662.103 126.352C662.928 125.76 663.862 125.336 664.851 125.104C665.841 124.873 666.865 124.839 667.868 125.005C668.87 125.171 669.83 125.534 670.692 126.071C671.555 126.608 672.303 127.311 672.894 128.138C673.487 128.965 673.91 129.901 674.14 130.893C674.371 131.884 674.404 132.911 674.239 133.916L671.624 149.817C675.811 151.075 679.813 152.879 683.527 155.186C689.046 158.581 693.785 163.111 697.428 168.477C701.106 173.969 703.698 180.116 705.064 186.587ZM661.688 278.109C662.538 273.688 661.925 269.11 659.941 265.071C658.418 262.299 656.326 259.883 653.801 257.983L647.967 293.393C649.856 292.859 651.67 292.084 653.362 291.086C655.655 289.713 657.599 287.828 659.043 285.576C660.488 283.324 661.393 280.769 661.688 278.109ZM645.423 213.695L650.809 181C648.259 181.441 645.876 182.568 643.916 184.26C640.426 187.177 638.117 191.27 637.421 195.771C636.895 199.086 637.185 202.48 638.267 205.656C639.761 209.015 642.261 211.826 645.423 213.695Z" fill="#CCEFF6"/>
<path d="M524.717 444.573C526.848 454.028 542.646 457.739 553.002 444.638C559.568 436.624 563.121 426.556 563.045 416.188H563.452C563.452 416.188 568.211 414.269 569.35 410.841C569.35 410.841 584.819 408.798 590.436 407.864C596.054 406.932 660.881 450.362 676.78 479.671C680.746 484.981 684.081 490.735 686.719 496.818C688.444 501.286 689.102 505.54 687.024 508.005C679.856 516.545 671.092 514.032 664.942 506.935C664.638 506.59 664.333 506.221 664.029 505.845C657.845 497.931 641.976 478.611 641.976 478.611L628.735 470.376C631.824 473.273 634.724 476.364 637.419 479.631C640.964 484.475 654.907 498.742 661.17 508.523C662.781 510.64 663.839 513.125 664.247 515.755C664.116 517.678 663.528 519.542 662.535 521.191C661.541 522.842 660.17 524.232 658.535 525.245C656.898 526.259 655.045 526.867 653.128 527.02C651.211 527.172 649.285 526.866 647.51 526.124C647.289 526.034 647.078 525.922 646.88 525.789C641.578 522.499 615.483 499.039 611.432 495.214C610.624 493.706 609.509 492.385 608.16 491.334C607.345 490.677 606.477 490.088 605.564 489.575L605.524 489.541C598.662 485.631 591.152 487.101 584.666 492.182C577.511 497.812 580.65 494.488 577.555 497.718C577.289 495.178 576.206 492.794 574.468 490.926C568.056 483.713 559.365 483.356 551.184 487.77C544.871 491.406 538.78 495.418 532.944 499.783L509.136 502.067L508.929 502.028C509.512 497.781 508.593 493.466 506.333 489.828C501.16 482.008 493.397 482.813 489.306 483.057C488.635 483.102 487.972 483.221 487.328 483.414L487.276 483.057C484.107 481.494 481.036 479.736 478.083 477.793C474.211 475.371 470.009 472.584 466.649 470.32C462.949 467.826 460.292 465.981 460.292 465.981C460.541 435.736 462.738 405.539 466.869 375.578L472.237 377.664C480.937 381.05 497.38 387.424 499.483 388.168C500.489 388.7 501.61 388.977 502.747 388.977C503.885 388.977 505.004 388.7 506.01 388.168C508.99 387.037 544.03 368.545 551.111 366.859C558.193 365.172 572.25 367.496 572.25 367.496C565.22 370.778 559.051 374.34 552.469 376.646C542.156 380.263 532.794 378.552 529.97 393.658C527.146 408.764 527.566 427.317 524.729 439.898C524.37 441.435 524.365 443.034 524.717 444.573Z" fill="#FFCEB6"/>
<path d="M664.063 505.843C664.367 506.217 664.672 506.587 664.976 506.931C664.976 506.931 661.294 508.64 661.221 508.526C654.957 498.746 641.013 484.478 637.468 479.635C634.774 476.366 631.874 473.275 628.785 470.378L642.026 478.613C642.026 478.613 657.879 497.928 664.063 505.843Z" fill="#FFCEB6"/>
<path d="M646.916 525.789L646.196 526.847C645.924 528.271 645.326 529.611 644.448 530.762C643.57 531.912 642.435 532.841 641.134 533.475C639.288 534.638 637.221 535.403 635.064 535.724C632.907 536.045 630.706 535.913 628.603 535.339C626.717 534.423 624.895 533.376 623.155 532.206L620.371 531.901C621.776 530.598 623.02 529.129 624.074 527.528C628.03 520.842 627.893 516.7 623.529 513.22C621.89 511.666 619.871 510.57 617.676 510.042C615.481 509.515 613.187 509.573 611.021 510.213L610.559 509.929C610.794 509.539 610.998 509.132 611.168 508.709C612.209 506.625 612.778 504.334 612.829 502.003C612.882 499.672 612.418 497.359 611.472 495.229C615.519 499.038 641.603 522.498 646.916 525.789Z" fill="#FFCEB6"/>
<path d="M628.602 535.339C624.898 539.938 619.834 543.242 614.137 544.776C612.938 545.208 611.659 545.374 610.389 545.262C609.12 545.15 607.89 544.762 606.784 544.126L605.36 544.104C610.621 540.366 615.633 536.29 620.37 531.905L623.154 532.21C624.896 533.378 626.716 534.424 628.602 535.339Z" fill="#FFCEB6"/>
<path d="M623.529 513.196C627.893 516.675 628.018 520.82 624.074 527.503C623.02 529.106 621.776 530.574 620.371 531.877C615.634 536.262 610.621 540.337 605.361 544.076C603.614 545.346 602.498 546.119 602.498 546.119C585.278 556.258 577.643 558.508 571.484 555.605C569.575 554.842 567.863 553.653 566.478 552.133C565.093 550.612 564.068 548.796 563.483 546.821L563.179 546.129C570.09 543.094 576.788 539.588 583.221 535.638C583.221 535.638 605.741 518.079 610.55 509.893L611.012 510.176C613.18 509.537 615.477 509.479 617.674 510.009C619.87 510.539 621.89 511.638 623.529 513.196Z" fill="#FFCEB6"/>
<path d="M611.475 495.201C612.422 497.331 612.885 499.645 612.832 501.976C612.78 504.307 612.213 506.598 611.17 508.682C611 509.105 610.797 509.512 610.562 509.902C605.75 518.088 583.233 535.646 583.233 535.646C576.799 539.598 570.102 543.104 563.19 546.138C548.887 552.104 545.557 548.578 540.42 546.159C535.526 543.569 531.85 539.146 530.192 533.854V533.706C534.445 533.389 538.598 532.249 542.42 530.352C542.42 530.352 570.326 515.407 574.52 508.517C576.704 505.348 577.787 501.547 577.606 497.7C580.701 494.47 577.563 497.794 584.718 492.164C591.204 487.079 598.718 485.613 605.576 489.523L605.616 489.556C606.529 490.07 607.396 490.658 608.212 491.316C609.558 492.369 610.67 493.693 611.475 495.201Z" fill="#FFCEB6"/>
<path d="M532.959 499.776C538.803 495.413 544.9 491.401 551.218 487.763C559.399 483.349 568.09 483.706 574.502 490.92C576.239 492.788 577.322 495.172 577.588 497.712C577.77 501.559 576.686 505.36 574.502 508.529C570.309 515.417 542.402 530.364 542.402 530.364C538.58 532.261 534.428 533.4 530.174 533.718C522.088 533.988 514.016 532.853 506.316 530.364C497.919 528.183 493.911 512.44 493.911 512.44C497.126 511.915 500.256 510.963 503.221 509.609C504.735 508.929 506.055 507.877 507.057 506.551C508.058 505.225 508.712 503.667 508.954 502.021L509.16 502.061L532.959 499.776Z" fill="#FFCEB6"/>
<path d="M568.387 117.129L570.363 126.712L452.663 151.02L484.573 306.235L475.003 308.205L473.028 298.614L441.125 143.41L558.817 119.103L568.387 117.129Z" fill="#CCEFF6"/>
<path d="M558.817 119.102L441.126 143.41L473.028 298.614L463.458 300.596L429.576 135.788L556.851 109.51L558.817 119.102Z" fill="#006B99"/>
<path d="M487.355 483.41C487.999 483.217 488.662 483.098 489.333 483.053C493.424 482.821 501.172 482.004 506.36 489.824C508.62 493.462 509.539 497.778 508.956 502.024C508.714 503.669 508.061 505.227 507.059 506.554C506.057 507.88 504.738 508.932 503.223 509.612C500.259 510.965 497.128 511.917 493.914 512.442C486.771 513.647 479.342 512.998 476.079 509.78C470.602 504.36 464.71 491.908 477.503 478.753L478.112 477.786C481.066 479.729 484.136 481.487 487.307 483.05L487.355 483.41Z" fill="#FFCEB6"/>
<path d="M470.432 370.314L470.316 370.409C470.203 370.257 470.059 370.133 469.892 370.043C469.725 369.955 469.541 369.904 469.351 369.895C469.162 369.885 468.974 369.918 468.799 369.991C468.625 370.064 468.469 370.174 468.342 370.314C467.538 371.963 467.047 373.747 466.896 375.575C462.767 405.536 460.569 435.733 460.319 465.977C460.453 472.946 461.008 477.54 462.127 478.159C462.825 478.642 463.687 478.831 464.522 478.681L464.564 478.818C461.448 480.895 453.132 481.941 450.87 475.35C450.312 470.006 450.271 464.62 450.745 459.268C451.823 433.343 456.037 384.545 458.353 371.175C458.478 370.011 458.766 368.87 459.212 367.789C461.71 364.507 470.14 366.395 470.432 370.314Z" fill="#CCEFF6"/>
<path d="M457.791 371.07L458.366 371.177C456.045 384.564 451.829 433.359 450.758 459.271H450.454C450.454 459.271 432.422 451.158 423.26 450.066C409.975 448.495 275.016 385.682 275.016 385.682L326.655 284.884L449.398 366.886L457.791 371.07Z" fill="#FFCEB6"/>
<path d="M808.664 272.272L853.222 375.115" stroke="#FFCEB6" stroke-width="3.39567" stroke-linecap="round" stroke-linejoin="round"/>
<path d="M275.004 385.671L326.653 284.884" stroke="#FFCEB6" stroke-width="3.39567" stroke-linecap="round" stroke-linejoin="round"/>
<path d="M702.258 602.995C669.986 624.354 632.693 636.862 594.094 639.272C555.497 641.684 516.941 633.912 482.274 616.735C447.607 599.556 418.038 573.571 396.516 541.37C374.993 509.168 362.269 471.876 359.612 433.209" stroke="#006B99" stroke-width="3.39567" stroke-linecap="round" stroke-linejoin="round"/>
<path d="M801.373 424.697C800.457 456.334 792.777 487.406 778.852 515.813C764.929 544.221 745.083 569.304 720.657 589.368" stroke="#006B99" stroke-width="3.39567" stroke-linecap="round" stroke-linejoin="round"/>
<path d="M677.574 567.679C653.487 583.624 625.863 593.402 597.126 596.154C568.389 598.906 539.417 594.549 512.751 583.465C486.087 572.38 462.543 554.909 444.186 532.579C425.829 510.252 413.219 483.75 407.464 455.4" stroke="#006B99" stroke-width="3.39567" stroke-linecap="round" stroke-linejoin="round"/>
<path d="M753.637 453.113C745.941 493.824 724.211 530.528 692.248 556.809" stroke="#006B99" stroke-width="3.39567" stroke-linecap="round" stroke-linejoin="round"/>
<path d="M698.901 290.027C709.342 299.47 718.622 310.125 726.546 321.769" stroke="#006B99" stroke-width="3.39567" stroke-linecap="round" stroke-linejoin="round"/>
<path d="M422.769 341.624C430.905 325.244 441.523 310.224 454.242 297.095" stroke="#006B99" stroke-width="3.39567" stroke-linecap="round" stroke-linejoin="round"/>
<path d="M688.484 224.65C716.321 240.345 740.459 261.864 759.256 287.744" stroke="#006B99" stroke-width="3.39567" stroke-linecap="round" stroke-linejoin="round"/>
<path d="M384.802 314.245C398.95 287.565 418.37 264.049 441.878 245.131" stroke="#006B99" stroke-width="3.39567" stroke-linecap="round" stroke-linejoin="round"/>
<path d="M658.561 377.61C658.561 377.61 731.452 327.537 750.509 313.824C769.565 300.112 808.677 272.272 808.677 272.272" stroke="#006B99" stroke-width="3.39567" stroke-linecap="round" stroke-linejoin="round"/>
<path d="M711.383 470.433C711.383 470.433 739.852 455.903 752.801 444.488C765.75 433.073 853.229 375.115 853.229 375.115" stroke="#006B99" stroke-width="3.39567" stroke-linecap="round" stroke-linejoin="round"/>
<path d="M275.004 385.669C275.004 385.669 409.966 448.497 423.249 450.053C432.413 451.145 450.444 459.258 450.444 459.258" stroke="#006B99" stroke-width="3.39567" stroke-linecap="round" stroke-linejoin="round"/>
<path d="M457.797 371.068L449.398 366.886L326.654 284.884" stroke="#006B99" stroke-width="3.39567" stroke-linecap="round" stroke-linejoin="round"/>
<path d="M472.368 377.39C472.188 374.943 471.489 372.563 470.316 370.409C470.203 370.258 470.058 370.133 469.891 370.043C469.724 369.955 469.539 369.904 469.351 369.895C469.162 369.885 468.974 369.918 468.799 369.991C468.624 370.063 468.468 370.174 468.341 370.314C467.537 371.963 467.047 373.747 466.896 375.575C462.765 405.536 460.569 435.733 460.319 465.978C460.453 472.946 461.006 477.54 462.126 478.159C462.825 478.642 463.685 478.83 464.522 478.681C467.261 477.97 466.375 471.208 466.375 471.208" stroke="#006B99" stroke-width="3.39567" stroke-linecap="round" stroke-linejoin="round"/>
<path d="M470.432 370.314C470.128 366.395 461.71 364.519 459.23 367.788C458.785 368.87 458.496 370.01 458.372 371.174C456.049 384.56 451.834 433.355 450.764 459.268C450.288 464.62 450.33 470.005 450.889 475.35C453.138 481.941 461.454 480.894 464.583 478.816" stroke="#006B99" stroke-width="3.39567" stroke-linecap="round" stroke-linejoin="round"/>
<path d="M466.896 375.575L472.264 377.661C480.965 381.046 497.408 387.42 499.51 388.165C500.517 388.697 501.637 388.974 502.774 388.974C503.912 388.974 505.033 388.697 506.038 388.165C509.017 387.033 544.058 368.542 551.14 366.855C558.221 365.169 572.278 367.492 572.278 367.492" stroke="#006B99" stroke-width="3.39567" stroke-linecap="round" stroke-linejoin="round"/>
<path d="M460.319 465.978C460.319 465.978 462.976 467.823 466.676 470.317C470.023 472.58 474.239 475.367 478.11 477.79C481.064 479.733 484.134 481.491 487.303 483.053" stroke="#006B99" stroke-width="3.39567" stroke-linecap="round" stroke-linejoin="round"/>
<path d="M710.335 450.441C710.335 454.866 712.979 461.994 711.15 470.378C709.412 478.357 703.63 487.458 687.69 496.482" stroke="#006B99" stroke-width="3.39567" stroke-linecap="round" stroke-linejoin="round"/>
<path d="M672.879 384.706C668.434 381.735 663.588 379.419 658.486 377.829C654.857 376.625 651.134 375.717 647.358 375.115C631.374 372.556 598.362 358.605 585.226 362.484C580.79 363.824 576.46 365.504 572.278 367.504C565.248 370.786 559.079 374.348 552.497 376.654C542.183 380.271 532.822 378.56 529.998 393.668C527.174 408.773 527.594 427.326 524.757 439.907C524.393 441.438 524.382 443.034 524.727 444.57C526.857 454.025 542.655 457.737 553.011 444.634C559.577 436.621 563.13 426.554 563.054 416.184C563.033 413.26 562.703 410.347 562.071 407.492" stroke="#006B99" stroke-width="3.39567" stroke-linecap="round" stroke-linejoin="round"/>
<path d="M563.461 416.185C563.461 416.185 568.221 414.267 569.358 410.838C569.358 410.838 584.827 408.795 590.446 407.862C596.063 406.928 660.891 450.359 676.788 479.668" stroke="#006B99" stroke-width="3.39567" stroke-linecap="round" stroke-linejoin="round"/>
<path d="M676.789 479.668C680.756 484.977 684.092 490.732 686.729 496.814C688.454 501.283 689.112 505.538 687.033 508.002C679.866 516.542 671.101 514.028 664.951 506.932C664.647 506.587 664.343 506.217 664.038 505.843C657.854 497.928 641.987 478.607 641.987 478.607L628.746 470.372" stroke="#006B99" stroke-width="3.39567" stroke-linecap="round" stroke-linejoin="round"/>
<path d="M605.601 442.246C605.872 445.07 606.578 447.835 607.695 450.441C608.562 451.447 620.13 461.899 628.769 470.378C631.857 473.275 634.757 476.366 637.452 479.635C640.997 484.478 654.941 498.746 661.204 508.527C662.814 510.643 663.871 513.128 664.28 515.758C664.149 517.681 663.561 519.544 662.568 521.195C661.574 522.845 660.203 524.234 658.567 525.248C656.932 526.261 655.079 526.87 653.161 527.023C651.244 527.176 649.318 526.868 647.542 526.128C647.323 526.036 647.111 525.924 646.913 525.792C641.611 522.501 615.515 499.041 611.465 495.216L611.446 495.195" stroke="#006B99" stroke-width="3.39567" stroke-linecap="round" stroke-linejoin="round"/>
<path d="M646.195 526.847C645.925 528.271 645.326 529.611 644.448 530.761C643.569 531.912 642.434 532.841 641.134 533.475C639.287 534.637 637.22 535.403 635.063 535.724C632.906 536.045 630.706 535.913 628.601 535.337C626.716 534.421 624.896 533.376 623.154 532.205" stroke="#006B99" stroke-width="3.39567" stroke-linecap="round" stroke-linejoin="round"/>
<path d="M628.603 535.337C624.898 539.937 619.834 543.241 614.137 544.774C612.939 545.207 611.659 545.373 610.39 545.261C609.12 545.149 607.89 544.762 606.785 544.124" stroke="#006B99" stroke-width="3.39567" stroke-linecap="round" stroke-linejoin="round"/>
<path d="M590.446 407.862C590.446 407.862 595.175 403.165 595.175 400.493" stroke="#006B99" stroke-width="3.39567" stroke-linecap="round" stroke-linejoin="round"/>
<path d="M569.359 410.838C569.779 408.636 569.779 406.374 569.359 404.17" stroke="#006B99" stroke-width="3.39567" stroke-linecap="round" stroke-linejoin="round"/>
<path d="M524.478 443.598C524.475 443.94 524.559 444.278 524.717 444.582C526.61 448.419 539.885 447.181 544.143 440.788C548.732 433.88 543.126 424.697 543.126 424.697" stroke="#006B99" stroke-width="3.39567" stroke-linecap="round" stroke-linejoin="round"/>
<path d="M527.301 422.203C527.301 422.203 530.709 421.94 535.214 421.415" stroke="#006B99" stroke-width="3.39567" stroke-linecap="round" stroke-linejoin="round"/>
<path d="M675.274 508.527C678.387 507.605 681.247 505.976 683.63 503.766" stroke="#006B99" stroke-width="3.39567" stroke-linecap="round" stroke-linejoin="round"/>
<path d="M664.96 506.932C664.96 506.932 661.277 508.64 661.204 508.527" stroke="#006B99" stroke-width="3.39567" stroke-linecap="round" stroke-linejoin="round"/>
<path d="M480.097 487.272C482.294 485.606 484.745 484.308 487.355 483.426C487.999 483.232 488.662 483.114 489.333 483.069C493.424 482.837 501.172 482.02 506.36 489.84C508.62 493.477 509.539 497.793 508.956 502.039C508.714 503.685 508.061 505.242 507.059 506.57C506.057 507.896 504.738 508.947 503.223 509.628C500.259 510.981 497.128 511.932 493.914 512.457C486.771 513.662 479.342 513.013 476.079 509.795C470.602 504.376 464.71 491.923 477.503 478.768" stroke="#006B99" stroke-width="3.39567" stroke-linecap="round" stroke-linejoin="round"/>
<path d="M532.959 499.777C530.543 501.54 528.534 503.037 527.29 503.961" stroke="#006B99" stroke-width="3.39567" stroke-linecap="round" stroke-linejoin="round"/>
<path d="M493.915 512.446C493.915 512.446 497.923 528.189 506.318 530.369C514.019 532.859 522.091 533.994 530.178 533.724C534.431 533.406 538.584 532.266 542.406 530.369C542.406 530.369 570.312 515.425 574.506 508.536C576.689 505.366 577.773 501.565 577.591 497.718C577.326 495.178 576.242 492.794 574.506 490.925C568.094 483.712 559.402 483.355 551.222 487.768C544.909 491.406 538.817 495.417 532.98 499.782" stroke="#006B99" stroke-width="3.39567" stroke-linecap="round" stroke-linejoin="round"/>
<path d="M532.981 499.782H532.972L509.164 502.066" stroke="#006B99" stroke-width="3.39567" stroke-linecap="round" stroke-linejoin="round"/>
<path d="M551.787 498.527C549.805 500.875 548.726 503.856 548.744 506.932C548.892 508.226 549.355 509.465 550.091 510.538C550.828 511.612 551.818 512.487 552.971 513.087C554.125 513.688 555.408 513.995 556.709 513.982C558.009 513.969 559.286 513.636 560.427 513.013C565.835 510.015 574.496 503.946 572.113 498.527" stroke="#006B99" stroke-width="3.39567" stroke-linecap="round" stroke-linejoin="round"/>
<path d="M555.5 495.201C557.391 493.522 559.695 492.382 562.174 491.898C563.918 491.824 565.625 492.412 566.955 493.546" stroke="#006B99" stroke-width="3.39567" stroke-linecap="round" stroke-linejoin="round"/>
<path d="M605.562 489.541C598.699 485.631 591.188 487.101 584.703 492.182C577.549 497.812 580.686 494.488 577.591 497.718C577.528 497.783 577.467 497.856 577.394 497.929" stroke="#006B99" stroke-width="3.39567" stroke-linecap="round" stroke-linejoin="round"/>
<path d="M530.191 533.871C531.847 539.165 535.524 543.587 540.419 546.178C545.555 548.599 548.9 552.121 563.188 546.156C570.101 543.121 576.797 539.617 583.231 535.665C583.231 535.665 605.751 518.106 610.559 509.921C610.794 509.531 610.998 509.122 611.168 508.701C612.21 506.615 612.778 504.325 612.831 501.995C612.882 499.663 612.419 497.349 611.472 495.22C610.664 493.711 609.55 492.39 608.201 491.34C607.386 490.683 606.517 490.094 605.604 489.581" stroke="#006B99" stroke-width="3.39567" stroke-linecap="round" stroke-linejoin="round"/>
<path d="M587.077 502.686C585.531 505.342 584.978 508.464 585.519 511.492C585.884 512.741 586.551 513.882 587.459 514.814C588.367 515.745 589.489 516.439 590.728 516.834C591.966 517.229 593.282 517.314 594.561 517.08C595.839 516.847 597.041 516.303 598.061 515.495C602.894 511.619 610.391 504.165 607.13 499.227" stroke="#006B99" stroke-width="3.39567" stroke-linecap="round" stroke-linejoin="round"/>
<path d="M590.172 498.767C591.749 496.793 593.825 495.28 596.186 494.384C597.894 494.012 599.68 494.3 601.185 495.193" stroke="#006B99" stroke-width="3.39567" stroke-linecap="round" stroke-linejoin="round"/>
<path d="M563.482 546.848C564.068 548.823 565.092 550.639 566.477 552.16C567.863 553.68 569.574 554.869 571.482 555.632C577.643 558.536 585.278 556.282 602.497 546.146C602.497 546.146 603.614 545.373 605.36 544.103C610.62 540.364 615.633 536.289 620.369 531.904C621.776 530.601 623.019 529.133 624.073 527.53C628.029 520.845 627.893 516.704 623.529 513.223C621.889 511.668 619.87 510.572 617.675 510.044C615.48 509.517 613.186 509.576 611.021 510.216" stroke="#006B99" stroke-width="3.39567" stroke-linecap="round" stroke-linejoin="round"/>
<path d="M606.334 520.391C605.138 522.443 604.712 524.856 605.132 527.195C605.414 528.164 605.929 529.047 606.631 529.77C607.333 530.492 608.202 531.029 609.161 531.336C610.12 531.642 611.139 531.707 612.128 531.527C613.118 531.346 614.048 530.923 614.837 530.296C618.572 527.298 624.377 521.534 621.837 517.707" stroke="#006B99" stroke-width="3.39567" stroke-linecap="round" stroke-linejoin="round"/>
<path d="M608.736 517.352C609.959 515.824 611.571 514.654 613.402 513.965C614.721 513.675 616.101 513.901 617.26 514.596" stroke="#006B99" stroke-width="3.39567" stroke-linecap="round" stroke-linejoin="round"/>
<path d="M595.175 476.261L598.678 482.959L605.562 489.541L605.601 489.575" stroke="#006B99" stroke-width="3.39567" stroke-linecap="round" stroke-linejoin="round"/>
<path d="M503.223 509.616C500.185 508.219 497.413 506.3 495.035 503.946C493.418 501.837 492.298 499.389 491.76 496.785C491.646 496.196 491.38 495.647 490.99 495.193C490.6 494.738 490.1 494.392 489.536 494.191C488.973 493.989 488.366 493.938 487.778 494.041C487.188 494.146 486.636 494.402 486.175 494.784C484.711 495.869 483.685 497.447 483.287 499.227C482.826 501.273 483.064 503.414 483.964 505.307C484.863 507.201 486.37 508.736 488.244 509.668" stroke="#006B99" stroke-width="3.39567" stroke-linecap="round" stroke-linejoin="round"/>
<path d="M592.612 293.917L486.54 315.815L484.574 306.235L452.663 151.02L570.363 126.711L579.925 124.741L609.545 268.77" stroke="#006B99" stroke-width="3.39567" stroke-linecap="round" stroke-linejoin="round"/>
<path d="M484.573 306.235L475.003 308.205L473.028 298.614L441.125 143.41L558.817 119.103L568.387 117.129L570.363 126.712V126.721" stroke="#006B99" stroke-width="3.39567" stroke-linecap="round" stroke-linejoin="round"/>
<path d="M473.028 298.614L463.458 300.596L429.576 135.788L556.851 109.51L558.817 119.102" stroke="#006B99" stroke-width="3.39567" stroke-linecap="round" stroke-linejoin="round"/>
<path d="M477.419 168.767L564.192 150.852" stroke="#006B99" stroke-width="3.39567" stroke-linecap="round" stroke-linejoin="round"/>
<path d="M486.142 186.965L572.917 169.038" stroke="#006B99" stroke-width="3.39567" stroke-linecap="round" stroke-linejoin="round"/>
<path d="M478.549 198.528L574.892 178.63" stroke="#006B99" stroke-width="3.39567" stroke-linecap="round" stroke-linejoin="round"/>
<path d="M480.515 208.117L576.858 188.223" stroke="#006B99" stroke-width="3.39567" stroke-linecap="round" stroke-linejoin="round"/>
<path d="M482.493 217.709L550.126 203.737" stroke="#006B99" stroke-width="3.39567" stroke-linecap="round" stroke-linejoin="round"/>
<path d="M494.03 225.322L580.802 207.406" stroke="#006B99" stroke-width="3.39567" stroke-linecap="round" stroke-linejoin="round"/>
<path d="M486.437 236.883L582.78 216.999" stroke="#006B99" stroke-width="3.39567" stroke-linecap="round" stroke-linejoin="round"/>
<path d="M488.403 246.472L584.746 226.579" stroke="#006B99" stroke-width="3.39567" stroke-linecap="round" stroke-linejoin="round"/>
<path d="M499.94 254.094L586.725 236.17" stroke="#006B99" stroke-width="3.39567" stroke-linecap="round" stroke-linejoin="round"/>
<path d="M492.346 265.656L588.69 245.762" stroke="#006B99" stroke-width="3.39567" stroke-linecap="round" stroke-linejoin="round"/>
<path d="M494.321 275.249L590.664 255.354" stroke="#006B99" stroke-width="3.39567" stroke-linecap="round" stroke-linejoin="round"/>
<path d="M525.083 293.886L534.907 291.864L546.577 289.451L570.823 284.441L575.428 283.486L583.157 281.894" stroke="#006B99" stroke-width="3.39567" stroke-linecap="round" stroke-linejoin="round"/>
<path d="M553.653 279.095C553.349 280.207 551.465 287.21 554.062 287.283C556.864 287.366 563.255 271.213 563.255 271.213C563.255 271.213 560.126 284.328 563.912 284.6C567.698 284.871 567.148 275.27 570.431 274.38C572.741 273.748 570.827 280.604 570.827 284.444C570.827 286.091 571.183 287.189 572.366 286.884C573.839 286.518 574.728 285.124 575.432 283.487C576.582 280.742 577.239 277.322 579.29 276.81" stroke="#006B99" stroke-width="3.39567" stroke-linecap="round" stroke-linejoin="round"/>
<path d="M541.48 283.812C542.819 287.073 544.828 289.607 546.52 289.211C550.369 288.277 553.236 280.281 553.644 279.095C553.652 279.059 553.661 279.024 553.674 278.991V278.96" stroke="#006B99" stroke-width="3.39567" stroke-linecap="round" stroke-linejoin="round"/>
<path d="M541.48 283.812C544.584 277.941 546.301 271.054 542.588 272.009C538.984 272.942 539.56 279.115 541.48 283.812Z" stroke="#006B99" stroke-width="3.39567" stroke-linecap="round" stroke-linejoin="round"/>
<path d="M534.834 291.517C536.915 290.953 539.487 287.598 541.486 283.813" stroke="#006B99" stroke-width="3.39567" stroke-linecap="round" stroke-linejoin="round"/>
<path d="M519.082 282.471L514.27 289.796L509.459 297.113" stroke="#006B99" stroke-width="3.39567" stroke-linecap="round" stroke-linejoin="round"/>
<path d="M506.957 284.974L514.269 289.797L521.571 294.609" stroke="#006B99" stroke-width="3.39567" stroke-linecap="round" stroke-linejoin="round"/>
<path d="M592.686 293.887C594.432 298.859 596.992 303.507 600.257 307.639C606.967 316.386 616.374 322.666 627.014 325.503L624.065 343.405C623.899 344.41 623.932 345.437 624.162 346.428C624.393 347.419 624.816 348.355 625.408 349.183C625.999 350.009 626.747 350.712 627.609 351.25C628.471 351.787 629.431 352.15 630.433 352.316C631.434 352.482 632.459 352.448 633.448 352.217C634.438 351.986 635.372 351.562 636.197 350.97C637.023 350.378 637.724 349.628 638.26 348.763C638.797 347.899 639.158 346.938 639.323 345.934L642.305 327.809C646.754 327.903 651.196 327.413 655.517 326.351C662.174 324.755 668.435 321.81 673.913 317.698C679.326 313.599 683.937 308.533 687.51 302.753C691.261 296.69 693.759 289.937 694.86 282.889C696.593 272.875 695.666 262.579 692.172 253.036C688.679 243.48 680.81 235.087 668.567 227.856L659.665 222.458L665.897 184.607C667.038 185.466 668.083 186.447 669.013 187.53C671.294 190.279 672.581 193.717 672.665 197.29C672.749 198.635 673.285 199.911 674.189 200.91C675.091 201.907 676.308 202.567 677.635 202.78L699.296 206.365C700.121 206.503 700.966 206.467 701.776 206.257C702.585 206.048 703.342 205.67 703.996 205.148C704.651 204.626 705.188 203.973 705.573 203.229C705.959 202.484 706.183 201.668 706.232 200.831C706.473 196.051 706.08 191.261 705.061 186.585C703.692 180.121 701.1 173.98 697.426 168.494C693.781 163.128 689.043 158.598 683.523 155.201C679.809 152.896 675.807 151.091 671.622 149.834L674.236 133.932C674.402 132.928 674.368 131.901 674.137 130.909C673.906 129.918 673.483 128.982 672.892 128.154C672.3 127.327 671.551 126.624 670.689 126.087C669.826 125.549 668.866 125.188 667.865 125.022C666.863 124.855 665.837 124.89 664.849 125.12C663.86 125.351 662.926 125.775 662.099 126.369C660.432 127.566 659.308 129.379 658.974 131.406L656.35 147.348C652.138 147.216 647.923 147.586 643.798 148.449C637.343 149.782 631.24 152.457 625.881 156.3C620.271 160.141 615.49 165.075 611.821 170.808C607.971 176.828 605.414 183.586 604.314 190.651C602.22 201.336 603.825 212.417 608.864 222.065C614.218 231.667 622.173 239.556 631.81 244.82L639.574 249.234L632.544 291.933C629.628 290.623 627.305 288.272 626.028 285.338C624.952 282.854 624.18 280.249 623.727 277.579C623.404 275.652 622.49 273.873 621.112 272.491C619.734 271.109 617.959 270.191 616.037 269.866L609.543 268.796L600.391 267.271C599.033 267.048 597.643 267.129 596.318 267.506C594.994 267.884 593.769 268.55 592.731 269.454C591.692 270.36 590.865 271.484 590.309 272.745C589.752 274.008 589.48 275.377 589.512 276.756C589.574 281.001 590.158 285.222 591.249 289.324C591.669 290.889 592.151 292.408 592.686 293.887Z" stroke="#006B99" stroke-width="3.39567" stroke-linecap="round" stroke-linejoin="round"/>
<path d="M638.255 205.665C637.172 202.489 636.882 199.095 637.409 195.781C638.104 191.28 640.413 187.188 643.904 184.27C645.863 182.578 648.246 181.451 650.796 181.01L645.41 213.704C642.249 211.836 639.748 209.026 638.255 205.665Z" stroke="#006B99" stroke-width="3.39567" stroke-linecap="round" stroke-linejoin="round"/>
<path d="M653.372 291.086C651.68 292.084 649.865 292.859 647.976 293.391L653.81 257.982C656.335 259.883 658.428 262.298 659.95 265.07C661.933 269.11 662.546 273.688 661.698 278.109C661.402 280.769 660.497 283.324 659.053 285.576C657.608 287.826 655.664 289.713 653.372 291.086Z" stroke="#006B99" stroke-width="3.39567" stroke-linecap="round" stroke-linejoin="round"/>
</g>
<defs>
<clipPath id="clip0_213_273">
<rect width="1128" height="756" fill="white"/>
</clipPath>
</defs>
</svg>
