<svg width="1480" height="992" viewBox="0 0 1480 992" fill="none" xmlns="http://www.w3.org/2000/svg">
<g clip-path="url(#clip0_208_113)">
<path d="M1480 0H0V992H1480V0Z" fill="#CCEFF6"/>
<path d="M1092.6 347.429V367.351H814.611V347.429H1092.6ZM868.834 358.216C868.833 357.295 868.563 356.395 868.056 355.63C867.548 354.866 866.828 354.269 865.987 353.917C865.145 353.565 864.217 353.473 863.324 353.653C862.43 353.832 861.608 354.275 860.964 354.927C860.319 355.578 859.88 356.408 859.703 357.31C859.524 358.212 859.615 359.149 859.963 359.999C860.313 360.85 860.902 361.576 861.661 362.089C862.418 362.601 863.309 362.874 864.22 362.876C864.829 362.879 865.433 362.76 865.996 362.527C866.559 362.293 867.07 361.949 867.501 361.513C867.931 361.079 868.271 360.563 868.504 359.994C868.735 359.425 868.853 358.815 868.848 358.2L868.834 358.216ZM850.687 358.216C850.687 357.295 850.416 356.395 849.909 355.63C849.403 354.866 848.683 354.269 847.841 353.917C846.999 353.565 846.073 353.473 845.179 353.653C844.285 353.832 843.464 354.275 842.818 354.926C842.174 355.576 841.735 356.405 841.557 357.307C841.379 358.209 841.47 359.146 841.816 359.997C842.165 360.847 842.754 361.575 843.511 362.088C844.268 362.599 845.159 362.874 846.07 362.876C846.679 362.879 847.283 362.76 847.846 362.527C848.41 362.293 848.922 361.949 849.352 361.514C849.782 361.079 850.124 360.563 850.356 359.994C850.587 359.425 850.706 358.815 850.703 358.2L850.687 358.216ZM832.537 358.216C832.537 357.295 832.266 356.395 831.759 355.63C831.251 354.866 830.531 354.269 829.69 353.917C828.848 353.565 827.921 353.473 827.027 353.653C826.133 353.832 825.313 354.275 824.668 354.927C824.022 355.578 823.585 356.408 823.406 357.31C823.229 358.212 823.319 359.149 823.668 359.999C824.016 360.85 824.607 361.576 825.364 362.089C826.122 362.601 827.012 362.874 827.924 362.876C828.533 362.88 829.138 362.763 829.703 362.53C830.268 362.296 830.781 361.953 831.213 361.518C831.644 361.083 831.987 360.566 832.22 359.996C832.452 359.427 832.57 358.817 832.566 358.2L832.537 358.216Z" fill="#006B99"/>
<path d="M1037.17 763.724H733.823L695.673 736.441L581.554 654.833L581.725 654.06C583.361 654.571 585.066 654.833 586.78 654.833H873.077C876.086 654.836 879.045 654.032 881.647 652.502L1037.17 763.724ZM871.973 721.881H953.567L929.596 704.742L876.356 666.655H630.072L651.408 681.919L707.281 721.881H871.973ZM805.421 753.252H923.816L894.298 732.145H775.606L805.123 753.252H805.421Z" fill="#CCEFF6"/>
<path d="M953.565 721.881H871.973V721.397L849.728 705.489H929.079L929.594 704.743L953.565 721.881Z" fill="#CCEFF6"/>
<path d="M742.13 681.92L720.794 666.653H876.354L929.594 704.742L929.078 705.488H849.728L871.971 721.396V721.881H707.261L651.388 681.92H742.13Z" fill="#CCEFF6"/>
<path d="M923.815 753.253H805.419H805.122L775.605 732.146H894H894.298L923.815 753.253Z" fill="#F7CEDC"/>
<path d="M890.111 534.708V637.643C890.111 639.902 889.67 642.138 888.814 644.225C887.957 646.311 886.702 648.207 885.12 649.803C883.538 651.399 881.661 652.666 879.593 653.529C877.526 654.392 875.312 654.834 873.075 654.833H586.778C584.543 654.834 582.329 654.391 580.263 653.527C578.197 652.663 576.321 651.398 574.739 649.802C573.159 648.204 571.906 646.31 571.05 644.222C570.196 642.136 569.757 639.9 569.758 637.643V431.786C569.758 427.224 571.551 422.852 574.743 419.627C577.934 416.402 582.264 414.59 586.778 414.586H873.075C875.312 414.586 877.527 415.03 879.595 415.895C881.662 416.759 883.541 418.026 885.123 419.624C886.705 421.221 887.96 423.119 888.815 425.206C889.671 427.295 890.112 429.533 890.111 431.792V534.708ZM877.147 628.24V441.173C877.147 437.589 875.738 434.154 873.229 431.622C870.721 429.088 867.32 427.666 863.773 427.666H596.084C592.536 427.666 589.136 429.088 586.627 431.622C584.12 434.154 582.711 437.589 582.711 441.173V628.24C582.711 631.822 584.12 635.259 586.627 637.791C589.136 640.324 592.536 641.747 596.084 641.747H863.77C867.317 641.747 870.718 640.324 873.226 637.791C875.734 635.259 877.142 631.822 877.142 628.24H877.147Z" fill="#CCEFF6"/>
<path d="M877.144 441.173V499.002H874.603V498.031C874.603 481.524 865.398 473.456 854.147 473.456H852.943C852.215 473.458 851.518 473.167 851.003 472.65C850.487 472.132 850.197 471.429 850.194 470.695V466.336C851.954 465.458 853.439 464.102 854.477 462.417C855.514 460.733 856.064 458.789 856.066 456.807V450.886C856.066 448.066 854.958 445.362 852.983 443.367C851.009 441.374 848.331 440.254 845.54 440.254C842.748 440.254 840.07 441.374 838.095 443.367C836.12 445.362 835.012 448.066 835.012 450.886V456.807C835.013 458.789 835.563 460.733 836.601 462.417C837.638 464.102 839.123 465.458 840.884 466.336V470.71C840.882 471.443 840.594 472.143 840.082 472.662C839.567 473.184 838.87 473.482 838.14 473.49C835.008 473.384 831.89 473.937 828.982 475.114C826.074 476.293 823.441 478.07 821.252 480.334C819.063 482.596 817.364 485.295 816.265 488.259C815.167 491.223 814.691 494.384 814.87 497.544H814.611V427.674H863.771C867.316 427.674 870.717 429.096 873.225 431.627C875.732 434.158 877.142 437.591 877.144 441.173Z" fill="#F7CEDC"/>
<path d="M874.295 635.743L874.867 635.784C873.644 637.619 871.993 639.121 870.06 640.16C868.128 641.198 865.971 641.74 863.782 641.739H814.611V640.238H814.87C814.691 637.079 815.167 633.917 816.265 630.953C817.364 627.99 819.063 625.29 821.252 623.028C823.441 620.765 826.074 618.988 828.982 617.809C831.89 616.631 835.008 616.078 838.14 616.185C838.499 616.186 838.856 616.117 839.189 615.978C839.522 615.84 839.826 615.636 840.08 615.38C840.336 615.123 840.538 614.819 840.677 614.483C840.816 614.148 840.888 613.787 840.888 613.423V609.049C839.126 608.173 837.643 606.815 836.604 605.131C835.566 603.446 835.016 601.503 835.015 599.52V593.604C835.015 590.784 836.125 588.078 838.098 586.085C840.073 584.09 842.751 582.97 845.543 582.97C848.335 582.97 851.012 584.09 852.987 586.085C854.961 588.078 856.071 590.784 856.071 593.604V599.52C856.069 601.503 855.519 603.446 854.481 605.131C853.444 606.815 851.959 608.173 850.197 609.049V613.431C850.2 614.165 850.491 614.868 851.006 615.386C851.521 615.904 852.22 616.194 852.946 616.192H854.15C864.198 616.182 872.608 622.623 874.295 635.743Z" fill="#006B99"/>
<path d="M874.606 568.747V570.147H814.611V568.221H814.87C814.692 565.063 815.167 561.901 816.266 558.939C817.366 555.976 819.065 553.276 821.254 551.014C823.443 548.752 826.074 546.974 828.982 545.796C831.89 544.619 835.008 544.066 838.14 544.172C838.869 544.172 839.569 543.879 840.085 543.359C840.598 542.842 840.887 542.14 840.888 541.408V537.037C839.126 536.159 837.642 534.802 836.604 533.116C835.566 531.432 835.016 529.488 835.015 527.503V521.586C835.015 518.766 836.125 516.062 838.098 514.069C840.073 512.074 842.751 510.954 845.543 510.954C848.335 510.954 851.012 512.074 852.987 514.069C854.961 516.062 856.071 518.766 856.071 521.586V527.515C856.069 529.499 855.519 531.443 854.481 533.129C853.444 534.813 851.959 536.171 850.197 537.049V541.397C850.2 542.131 850.491 542.834 851.006 543.352C851.521 543.871 852.22 544.161 852.946 544.161H854.15C865.401 544.172 874.606 552.25 874.606 568.747Z" fill="#006B99"/>
<path d="M874.606 498.044V499.016H814.611V497.516H814.87C814.695 494.359 815.173 491.199 816.274 488.24C817.373 485.28 819.072 482.583 821.261 480.323C823.451 478.062 826.082 476.288 828.988 475.111C831.894 473.935 835.01 473.382 838.14 473.489C838.869 473.487 839.567 473.197 840.085 472.679C840.597 472.161 840.885 471.46 840.888 470.727V466.334C839.126 465.458 837.643 464.1 836.606 462.416C835.567 460.732 835.016 458.789 835.015 456.805V450.884C835.015 448.064 836.125 445.36 838.098 443.367C840.073 441.372 842.751 440.252 845.543 440.252C848.335 440.252 851.012 441.372 852.987 443.367C854.961 445.36 856.071 448.064 856.071 450.884V456.805C856.069 458.789 855.519 460.732 854.48 462.416C853.442 464.1 851.959 465.458 850.197 466.334V470.709C850.2 471.443 850.491 472.146 851.006 472.663C851.521 473.181 852.22 473.472 852.946 473.47H854.15C865.401 473.489 874.606 481.548 874.606 498.044Z" fill="#006B99"/>
<path d="M846.084 353.552C846.996 353.551 847.889 353.821 848.649 354.333C849.409 354.842 850.001 355.57 850.353 356.42C850.703 357.271 850.795 358.209 850.618 359.113C850.44 360.017 850.001 360.847 849.357 361.499C848.711 362.151 847.889 362.596 846.995 362.775C846.099 362.955 845.171 362.862 844.329 362.51C843.486 362.156 842.766 361.558 842.259 360.791C841.753 360.023 841.483 359.123 841.485 358.202C841.486 356.969 841.97 355.788 842.834 354.917C843.696 354.045 844.864 353.555 846.084 353.552Z" fill="#FFCEB6"/>
<path d="M827.938 353.552C828.851 353.551 829.743 353.823 830.502 354.334C831.262 354.846 831.854 355.572 832.204 356.423C832.554 357.275 832.645 358.211 832.468 359.115C832.29 360.019 831.851 360.849 831.205 361.501C830.56 362.153 829.739 362.596 828.843 362.775C827.949 362.955 827.021 362.862 826.179 362.508C825.336 362.156 824.616 361.558 824.11 360.791C823.604 360.023 823.335 359.123 823.336 358.202C823.336 356.969 823.822 355.787 824.685 354.915C825.549 354.044 826.719 353.554 827.938 353.552Z" fill="#CCEFF6"/>
<path d="M768.525 215.174V235.115H386.801V215.174H768.525ZM441.055 225.964C441.054 225.043 440.784 224.144 440.277 223.379C439.77 222.614 439.05 222.018 438.208 221.666C437.365 221.315 436.438 221.222 435.545 221.401C434.651 221.582 433.83 222.026 433.185 222.676C432.541 223.327 432.101 224.156 431.924 225.059C431.745 225.963 431.836 226.898 432.185 227.749C432.535 228.599 433.124 229.327 433.882 229.838C434.639 230.349 435.53 230.623 436.441 230.624C437.047 230.626 437.648 230.506 438.208 230.272C438.769 230.037 439.278 229.694 439.706 229.262C440.135 228.829 440.474 228.314 440.705 227.749C440.937 227.183 441.055 226.576 441.055 225.964ZM422.908 225.964C422.908 225.045 422.637 224.144 422.13 223.379C421.624 222.614 420.904 222.018 420.062 221.667C419.221 221.315 418.294 221.222 417.4 221.401C416.506 221.581 415.686 222.024 415.04 222.675C414.395 223.325 413.956 224.155 413.779 225.057C413.6 225.96 413.691 226.894 414.038 227.746C414.386 228.597 414.975 229.323 415.732 229.836C416.489 230.348 417.38 230.623 418.291 230.624C418.899 230.626 419.498 230.507 420.059 230.272C420.621 230.039 421.129 229.696 421.558 229.263C421.986 228.831 422.327 228.316 422.558 227.75C422.791 227.183 422.91 226.578 422.908 225.964ZM404.758 225.964C404.758 225.043 404.487 224.144 403.98 223.379C403.473 222.614 402.753 222.018 401.911 221.666C401.069 221.315 400.143 221.222 399.248 221.401C398.354 221.582 397.534 222.026 396.89 222.676C396.244 223.327 395.806 224.156 395.627 225.059C395.45 225.963 395.541 226.898 395.889 227.749C396.238 228.599 396.828 229.327 397.585 229.838C398.343 230.349 399.233 230.623 400.146 230.624C400.752 230.626 401.351 230.506 401.912 230.272C402.472 230.037 402.981 229.694 403.409 229.262C403.838 228.829 404.177 228.314 404.41 227.749C404.641 227.183 404.76 226.576 404.758 225.964Z" fill="#006B99"/>
<path d="M755.367 502.799V511.949L746.396 507.448C747.318 505.909 748.646 504.659 750.229 503.839C751.814 503.018 753.593 502.658 755.367 502.799Z" fill="#FFCEB6"/>
<path d="M720.796 666.653L742.132 681.92H651.39L630.052 666.653H720.796Z" fill="#CCEFF6"/>
<path d="M680.35 316.542C680.68 316.783 680.954 317.092 681.158 317.449C681.36 317.806 681.486 318.202 681.526 318.611C681.566 319.021 681.52 319.435 681.392 319.824C681.262 320.214 681.053 320.572 680.777 320.875L672.604 329.594L664.155 338.598L648.263 355.567L647.326 355.699C646.962 355.295 646.544 354.948 646.082 354.663C645.066 354.016 643.902 353.647 642.701 353.591V353.565L664.292 330.209L676.55 316.921C676.819 316.627 677.146 316.392 677.51 316.232C677.874 316.073 678.267 315.989 678.663 315.991C679.269 315.992 679.858 316.185 680.35 316.542Z" fill="#006B99"/>
<path d="M661.966 464.947L671.721 469.857C669.816 475.842 661.959 473.876 661.959 473.876L661.966 464.947Z" fill="#FFCEB6"/>
<path d="M657.65 284.998V294.153L648.69 289.65C649.611 288.113 650.935 286.864 652.518 286.044C654.1 285.222 655.876 284.86 657.65 284.998Z" fill="#FFCEB6"/>
<path d="M651.376 369.381C652.776 373.298 648.459 377.26 648.459 377.26C645.154 374.968 638.349 378.097 636.391 381.841C630.446 381.03 630.596 377.901 632.675 374.956C634.097 373.04 635.871 371.417 637.899 370.177C642.55 367.352 649.974 365.468 651.376 369.381Z" fill="#FFCEB6"/>
<path d="M646.708 362.377C651.999 365.405 651.374 369.381 651.374 369.381C649.973 365.469 642.548 367.352 637.894 370.169C635.865 371.41 634.092 373.032 632.671 374.95L631.994 374.488C631.451 374.458 630.913 374.375 630.386 374.24C626.006 373.14 628.61 369.134 628.792 368.845C631.124 367.95 633.332 366.757 635.364 365.295C635.95 364.84 636.446 364.276 636.827 363.634L637.254 363.698C637.254 363.698 643.168 360.348 646.708 362.377Z" fill="#FFCEB6"/>
<path d="M636.389 381.833C638.347 378.082 645.152 374.96 648.457 377.252C651.764 379.545 649.896 385.787 642.069 394.743C640.191 397.232 637.786 399.266 635.03 400.694C632.272 402.123 629.233 402.909 626.136 402.998L620.564 414.429V414.586H591.886V414.436L603.852 388.838L614.959 367.452C615.675 366.278 616.705 365.329 617.931 364.717C622.823 362.058 628.118 360.244 633.603 359.35C634.197 359.311 634.794 359.373 635.367 359.533C635.766 359.655 636.132 359.872 636.434 360.162C636.736 360.453 636.967 360.81 637.109 361.207C637.253 361.602 637.3 362.027 637.253 362.446C637.203 362.865 637.06 363.265 636.83 363.619C636.451 364.26 635.955 364.824 635.367 365.28C633.335 366.742 631.128 367.934 628.797 368.829C628.083 369.118 627.411 369.393 626.812 369.617L626.916 369.903L608.406 389.675C608.131 389.976 607.921 390.333 607.791 390.723C607.663 391.112 607.617 391.525 607.657 391.933C607.699 392.34 607.824 392.736 608.026 393.091C608.229 393.448 608.504 393.756 608.834 393.997C609.328 394.354 609.922 394.545 610.531 394.544C610.927 394.544 611.32 394.462 611.684 394.301C612.048 394.142 612.375 393.907 612.645 393.614L629.925 375.155L630.389 374.225C630.916 374.361 631.454 374.443 631.999 374.472L632.671 374.934C630.594 377.895 630.452 381.024 636.389 381.833Z" fill="#FFCEB6"/>
<path d="M647.33 355.713C649.755 358.542 646.711 362.377 646.711 362.377C643.169 360.346 637.271 363.686 637.271 363.686L636.844 363.622C637.072 363.27 637.217 362.868 637.265 362.449C637.314 362.031 637.265 361.606 637.123 361.21C636.981 360.813 636.75 360.456 636.446 360.166C636.144 359.875 635.779 359.659 635.379 359.537C634.806 359.376 634.209 359.314 633.616 359.353C634.535 357.704 635.848 356.315 637.436 355.312C639.024 354.311 640.835 353.727 642.705 353.616C643.905 353.671 645.07 354.041 646.086 354.688C646.547 354.969 646.967 355.314 647.33 355.713Z" fill="#FFCEB6"/>
<path d="M646.088 640.234V641.736H596.084C593.913 641.739 591.775 641.208 589.854 640.185C587.935 639.163 586.291 637.682 585.067 635.872L585.26 635.741C586.946 622.608 595.359 616.179 605.394 616.179H606.612C607.337 616.179 608.032 615.887 608.545 615.369C609.059 614.852 609.345 614.15 609.345 613.418V609.042C607.586 608.166 606.105 606.808 605.069 605.123C604.033 603.439 603.485 601.495 603.489 599.513V593.596C603.461 592.184 603.714 590.779 604.232 589.466C604.748 588.154 605.52 586.958 606.499 585.949C607.48 584.94 608.648 584.14 609.939 583.593C611.229 583.046 612.614 582.765 614.013 582.765C615.413 582.765 616.798 583.046 618.088 583.593C619.378 584.14 620.547 584.94 621.528 585.949C622.507 586.958 623.279 588.154 623.795 589.466C624.312 590.779 624.565 592.184 624.538 593.596V599.513C624.538 601.497 623.99 603.441 622.952 605.125C621.915 606.809 620.431 608.166 618.669 609.042V613.432C618.671 614.164 618.959 614.866 619.471 615.383C619.984 615.901 620.68 616.193 621.404 616.193C624.535 616.085 627.656 616.636 630.565 617.814C633.476 618.991 636.109 620.768 638.299 623.032C640.492 625.295 642.191 627.995 643.29 630.959C644.391 633.922 644.867 637.087 644.688 640.247L646.088 640.234Z" fill="#006B99"/>
<path d="M646.088 570.146V640.234H644.691C644.87 637.074 644.394 633.911 643.294 630.947C642.194 627.982 640.495 625.283 638.304 623.019C636.112 620.757 633.479 618.979 630.569 617.801C627.66 616.624 624.54 616.072 621.407 616.182C620.683 616.18 619.987 615.89 619.476 615.372C618.962 614.854 618.674 614.151 618.674 613.421V609.046C620.435 608.169 621.918 606.812 622.955 605.128C623.993 603.443 624.543 601.5 624.543 599.516V593.599C624.491 590.815 623.359 588.162 621.39 586.21C619.423 584.26 616.775 583.166 614.017 583.166C611.259 583.166 608.612 584.26 606.643 586.21C604.676 588.162 603.543 590.815 603.492 593.599V599.516C603.489 601.498 604.037 603.442 605.072 605.126C606.108 606.81 607.589 608.169 609.35 609.046V613.431C609.35 614.164 609.062 614.867 608.548 615.384C608.036 615.902 607.341 616.193 606.615 616.193H605.397C595.367 616.193 586.95 622.634 585.263 635.755L585.07 635.886C583.538 633.641 582.718 630.978 582.722 628.251V570.146H646.088Z" fill="#F7CEDC"/>
<path d="M646.089 568.223V570.147H584.952V568.747C584.952 552.24 594.154 544.174 605.383 544.174H606.601C607.327 544.172 608.023 543.88 608.534 543.363C609.048 542.843 609.336 542.14 609.336 541.408V537.037C607.575 536.159 606.094 534.801 605.058 533.115C604.023 531.431 603.475 529.487 603.478 527.505V521.587C603.452 520.174 603.704 518.771 604.221 517.458C604.739 516.144 605.51 514.948 606.49 513.939C607.469 512.932 608.639 512.13 609.928 511.583C611.218 511.036 612.604 510.755 614.003 510.755C615.403 510.755 616.787 511.036 618.077 511.583C619.368 512.13 620.536 512.932 621.517 513.939C622.497 514.948 623.268 516.144 623.785 517.458C624.303 518.771 624.555 520.174 624.529 521.587V527.515C624.528 529.499 623.979 531.443 622.941 533.127C621.904 534.813 620.421 536.171 618.66 537.049V541.397C618.662 542.13 618.95 542.831 619.462 543.349C619.975 543.866 620.669 544.158 621.393 544.161C624.526 544.053 627.645 544.605 630.554 545.782C633.463 546.96 636.096 548.735 638.289 550.999C640.479 553.261 642.178 555.96 643.279 558.924C644.378 561.888 644.855 565.051 644.677 568.211L646.089 568.223Z" fill="#006B99"/>
<path d="M646.089 497.523V499.024H584.952V498.052C584.952 481.543 594.154 473.477 605.383 473.477H606.601C607.326 473.476 608.021 473.185 608.534 472.668C609.046 472.15 609.335 471.449 609.336 470.716V466.334C607.575 465.456 606.094 464.098 605.059 462.414C604.023 460.73 603.476 458.787 603.478 456.805V450.884C603.452 449.472 603.704 448.067 604.221 446.754C604.739 445.442 605.51 444.246 606.49 443.237C607.469 442.228 608.639 441.427 609.928 440.88C611.218 440.333 612.604 440.052 614.003 440.052C615.403 440.052 616.787 440.333 618.077 440.88C619.368 441.427 620.536 442.228 621.517 443.237C622.497 444.246 623.268 445.442 623.785 446.754C624.303 448.067 624.555 449.472 624.529 450.884V456.805C624.528 458.787 623.979 460.731 622.941 462.416C621.904 464.1 620.421 465.456 618.66 466.334V470.708C618.66 471.441 618.948 472.142 619.462 472.66C619.974 473.178 620.669 473.47 621.393 473.47C624.526 473.362 627.646 473.913 630.556 475.091C633.465 476.268 636.098 478.045 638.29 480.309C640.481 482.572 642.18 485.272 643.28 488.235C644.38 491.199 644.856 494.362 644.677 497.523H646.089Z" fill="#006B99"/>
<path d="M630.388 374.239L629.922 375.169L612.657 393.628C612.387 393.921 612.059 394.156 611.696 394.315C611.333 394.476 610.939 394.559 610.543 394.559C609.934 394.559 609.341 394.368 608.846 394.011C608.516 393.77 608.242 393.462 608.038 393.107C607.836 392.75 607.71 392.356 607.67 391.947C607.629 391.539 607.676 391.126 607.804 390.737C607.933 390.347 608.143 389.99 608.419 389.689L626.928 369.917L626.825 369.631C627.423 369.407 628.095 369.132 628.809 368.845C628.63 369.132 626.008 373.14 630.388 374.239Z" fill="#006B99"/>
<path d="M564.25 247.148L574.023 252.059C572.133 258.039 564.264 256.078 564.264 256.078L564.25 247.148Z" fill="#FFCEB6"/>
<path d="M569.758 439.048V481.027H552.206V480.592L540.242 466.336C542.628 460.731 543.9 454.708 543.986 448.608C543.986 441.525 539.372 432.685 535.39 426.364L552.206 414.586L569.758 439.048Z" fill="#FFCEB6"/>
<path d="M531.89 235.116V382.437L531.708 382.813C529.245 381.691 526.655 380.878 523.997 380.393L524.111 379.804V235.116H531.89Z" fill="#CCEFF6"/>
<path d="M504.783 347.806C506.897 352.06 504.55 358.244 500.092 358.806C498.51 359.029 496.898 358.767 495.464 358.055C497.302 355.306 498.704 352.284 499.625 349.099C500.171 347.775 501.062 346.335 501.931 344.504C503.166 345.317 504.153 346.46 504.783 347.806Z" fill="#006B99"/>
<path d="M489.965 375.26L504.29 379.819C504.29 379.819 496.411 388.617 475.162 389.768C461.837 390.214 448.668 386.758 437.243 379.819L455.288 372.289L443.584 360.036C443.662 360.036 442.042 346.979 442.121 346.968C444.348 346.679 460.047 360.756 461.328 358.895L464.806 359.705C468.215 362.068 471.943 363.92 475.876 365.206L476.005 365.248C477.146 365.679 485.727 368.86 489.627 370.064H489.698L489.735 370.784L489.965 375.26Z" fill="#FFCEB6"/>
<path d="M495.125 346.143C494.713 346.44 494.275 346.699 493.817 346.916C493.817 346.916 489.36 345.933 487.722 345.789C486.414 345.673 478.999 346.041 476.147 346.209C475.448 346.236 475.032 346.262 475.032 346.262C476.887 347.866 478.845 349.345 480.891 350.689C481.988 351.502 483.255 352.047 484.595 352.284C485.936 352.52 487.312 352.441 488.617 352.052C491.055 350.405 493.245 348.416 495.125 346.143ZM438.893 327.683C440.924 325.433 443.75 326.674 445.579 327.932C447.456 329.304 449.734 330.004 452.049 329.92C464.259 329.109 466.838 310.688 467.603 304.141C467.603 304.141 484.341 305.972 489.746 308.67C490.262 308.932 490.783 309.221 491.288 309.51C496.594 312.658 500.516 317.727 502.258 323.689L502.127 324.063C501.789 325.045 501.492 325.699 501.492 325.699C503.087 329.159 503.681 333.003 503.202 336.789C502.713 339.588 501.845 342.306 500.622 344.867C499.468 347.344 498.25 349.278 497.525 351.061C496.283 355.343 494.392 359.405 491.923 363.104C491.198 363.977 490.326 364.714 489.345 365.28C488.415 365.812 487.395 366.162 486.336 366.312C483.433 366.654 480.49 366.445 477.662 365.697C477.12 365.566 476.548 365.422 476.017 365.254L475.886 365.212C471.955 363.925 468.226 362.074 464.817 359.713L458.751 358.901C459.932 357.446 460.647 355.661 460.803 353.785C460.957 351.911 460.545 350.031 459.62 348.397C457.391 344.864 455.783 343.448 450.128 345.978C448.762 346.693 447.635 347.799 446.889 349.159L446.499 350.938C442.704 348.728 434.241 337.179 437.867 329.324C438.117 328.723 438.462 328.17 438.893 327.683Z" fill="#FFCEB6"/>
<path d="M467.577 304.074C467.584 304.096 467.584 304.119 467.577 304.141C466.775 311.173 463.844 331.86 449.208 329.805C448.176 329.652 447.205 329.221 446.396 328.558C444.709 327.196 441.262 325.024 438.877 327.685C438.449 328.171 438.097 328.723 437.836 329.319C434.207 337.177 441.028 343.618 444.825 345.828L447.885 347.951C447.208 349.116 446.834 350.436 446.798 351.786C446.761 353.137 447.063 354.475 447.677 355.677C449.271 360.22 452.926 359.705 455.717 359.773L455.274 372.289L437.227 379.819C429.345 381.155 421.695 383.641 414.52 387.198C407.792 368.32 429.932 337.146 436.091 318.803C436.737 316.89 435.946 302.882 446.098 291.322C451.243 287.133 457.269 284.19 463.713 282.719C464.456 282.524 465.17 282.349 465.853 282.198C472.595 280.918 479.565 281.852 485.744 284.859C491.923 287.867 496.987 292.793 500.195 298.915C508.881 316.79 502.243 323.676 502.243 323.676C500.502 317.717 496.582 312.647 491.277 309.5C486.669 305.658 481.219 302.987 475.382 301.707C467.41 300.409 467.524 303.617 467.577 304.074Z" fill="#006B99"/>
<path d="M491.278 309.51C490.773 309.221 490.253 308.932 489.734 308.67C484.329 305.972 467.594 304.141 467.594 304.141C467.6 304.119 467.6 304.096 467.594 304.074C467.541 303.616 467.426 300.408 475.395 301.718C481.228 303.001 486.673 305.672 491.278 309.51Z" fill="#006B99"/>
<path d="M489.45 365.479L489.695 370.064H489.627C485.727 368.859 477.146 365.677 476.005 365.246C476.548 365.415 477.12 365.558 477.651 365.69C480.479 366.437 483.42 366.646 486.325 366.305C487.383 366.155 488.402 365.804 489.33 365.272L489.45 365.479Z" fill="#006B99"/>
<path d="M455.031 359.13C453.341 359.334 451.634 358.926 450.214 357.979C448.796 357.032 447.755 355.607 447.278 353.957C446.932 352.973 446.807 351.924 446.917 350.884C447.025 349.846 447.361 348.844 447.902 347.954C448.421 347.075 449.202 346.384 450.131 345.978C450.933 345.501 451.827 345.199 452.754 345.096C453.68 344.994 454.617 345.089 455.504 345.378C456.39 345.667 457.206 346.143 457.897 346.775C458.589 347.406 459.139 348.177 459.514 349.039C460.073 350.272 460.306 351.63 460.194 352.981C460.081 354.333 459.623 355.632 458.868 356.752C458.461 357.388 457.923 357.927 457.294 358.335C456.663 358.743 455.954 359.01 455.213 359.12C455.152 359.117 455.097 359.13 455.031 359.13Z" fill="#CCEFF6"/>
<path d="M437.243 443.801L436.102 481.027H398.458V442.245L437.243 443.801Z" fill="#FFCEB6"/>
<path d="M418.291 221.316C419.202 221.315 420.095 221.587 420.855 222.098C421.613 222.61 422.205 223.336 422.555 224.187C422.905 225.039 422.998 225.975 422.819 226.879C422.642 227.783 422.202 228.613 421.558 229.265C420.912 229.917 420.09 230.36 419.196 230.54C418.3 230.719 417.372 230.626 416.531 230.272C415.687 229.92 414.967 229.322 414.462 228.554C413.956 227.788 413.686 226.887 413.688 225.966C413.689 224.733 414.175 223.551 415.037 222.679C415.9 221.808 417.07 221.318 418.291 221.316Z" fill="#FFCEB6"/>
<path d="M400.144 221.316C401.057 221.315 401.95 221.587 402.708 222.098C403.468 222.61 404.06 223.336 404.409 224.187C404.758 225.039 404.851 225.975 404.674 226.879C404.496 227.783 404.057 228.613 403.411 229.265C402.767 229.917 401.943 230.36 401.049 230.54C400.154 230.719 399.227 230.626 398.384 230.272C397.542 229.92 396.822 229.322 396.315 228.554C395.809 227.788 395.541 226.887 395.542 225.966C395.542 224.733 396.028 223.551 396.891 222.679C397.753 221.808 398.923 221.318 400.144 221.316Z" fill="#CCEFF6"/>
<path d="M881.645 652.503C879.043 654.032 876.086 654.837 873.075 654.833H586.778C584.543 654.834 582.329 654.391 580.263 653.527C578.197 652.663 576.321 651.398 574.739 649.802C573.159 648.204 571.906 646.31 571.05 644.222C570.196 642.136 569.757 639.9 569.758 637.643V431.786C569.758 427.224 571.551 422.852 574.743 419.627C577.934 416.402 582.264 414.59 586.778 414.586H873.075C875.312 414.586 877.527 415.03 879.595 415.895C881.662 416.759 883.541 418.026 885.123 419.624C886.705 421.221 887.96 423.119 888.815 425.206C889.671 427.295 890.112 429.533 890.111 431.792V637.65C890.109 640.657 889.327 643.612 887.841 646.218C886.356 648.825 884.22 650.991 881.645 652.503Z" stroke="#006B99" stroke-width="3.23435" stroke-linecap="round" stroke-linejoin="round"/>
<path d="M646.088 641.739H596.084C592.538 641.739 589.136 640.316 586.629 637.782C584.12 635.25 582.711 631.815 582.711 628.231V441.171C582.711 437.59 584.12 434.153 586.629 431.621C589.136 429.088 592.538 427.665 596.084 427.665H863.77C867.317 427.665 870.718 429.088 873.226 431.621C875.734 434.153 877.144 437.59 877.144 441.171V628.239C877.144 631.822 875.734 635.257 873.226 637.79C870.718 640.322 867.317 641.745 863.77 641.745H646.088V641.739Z" stroke="#006B99" stroke-width="3.23435" stroke-linecap="round" stroke-linejoin="round"/>
<path d="M713.158 422.226H735.235" stroke="#006B99" stroke-width="3.23435" stroke-linecap="round" stroke-linejoin="round"/>
<path d="M646.083 427.674V497.524V499.018V568.223V570.148V640.236V641.739" stroke="#006B99" stroke-width="3.23435" stroke-linecap="round" stroke-linejoin="round"/>
<path d="M814.611 427.674V497.524V499.018V568.223V570.148V640.236V641.739" stroke="#006B99" stroke-width="3.23435" stroke-linecap="round" stroke-linejoin="round"/>
<path d="M582.719 499.016H584.952H646.085" stroke="#006B99" stroke-width="3.23435" stroke-linecap="round" stroke-linejoin="round"/>
<path d="M582.719 570.146H584.952H646.085" stroke="#006B99" stroke-width="3.23435" stroke-linecap="round" stroke-linejoin="round"/>
<path d="M644.688 497.524C644.864 494.365 644.386 491.204 643.285 488.242C642.184 485.281 640.484 482.583 638.293 480.321C636.103 478.061 633.469 476.285 630.562 475.109C627.654 473.932 624.535 473.382 621.404 473.49C620.68 473.488 619.984 473.198 619.473 472.68C618.961 472.163 618.671 471.461 618.671 470.729V466.336C620.431 465.458 621.915 464.1 622.952 462.416C623.99 460.733 624.54 458.789 624.54 456.805V450.886C624.488 448.1 623.356 445.447 621.389 443.497C619.42 441.545 616.772 440.453 614.013 440.453C611.257 440.453 608.608 441.545 606.64 443.497C604.673 445.447 603.541 448.1 603.489 450.886V456.805C603.487 458.788 604.036 460.731 605.07 462.416C606.106 464.098 607.588 465.457 609.347 466.336V470.71C609.345 471.441 609.057 472.144 608.545 472.662C608.032 473.179 607.338 473.47 606.612 473.471H605.394C594.154 473.471 584.964 481.548 584.964 498.046" stroke="#006B99" stroke-width="3.23435" stroke-linecap="round" stroke-linejoin="round"/>
<path d="M644.688 568.223C644.865 565.063 644.389 561.9 643.288 558.937C642.189 555.973 640.488 553.274 638.298 551.01C636.107 548.748 633.474 546.971 630.565 545.793C627.656 544.616 624.535 544.064 621.404 544.174C620.678 544.171 619.984 543.877 619.472 543.36C618.961 542.842 618.671 542.141 618.669 541.408V537.037C620.43 536.161 621.913 534.806 622.95 533.123C623.988 531.44 624.54 529.498 624.543 527.516V521.588C624.491 518.802 623.359 516.149 621.39 514.199C619.422 512.248 616.775 511.155 614.016 511.155C611.258 511.155 608.611 512.248 606.643 514.199C604.674 516.149 603.542 518.802 603.492 521.588V527.516C603.488 529.498 604.037 531.442 605.072 533.128C606.108 534.812 607.589 536.17 609.35 537.049V541.397C609.35 542.13 609.062 542.833 608.548 543.35C608.036 543.87 607.341 544.162 606.615 544.162H605.397C594.157 544.162 584.965 552.24 584.965 568.736" stroke="#006B99" stroke-width="3.23435" stroke-linecap="round" stroke-linejoin="round"/>
<path d="M644.686 640.234C644.865 637.074 644.389 633.911 643.29 630.947C642.191 627.982 640.49 625.283 638.299 623.019C636.109 620.755 633.474 618.978 630.565 617.801C627.656 616.624 624.535 616.072 621.403 616.182C620.678 616.18 619.983 615.89 619.471 615.372C618.959 614.854 618.671 614.151 618.669 613.42V609.045C620.43 608.168 621.914 606.812 622.95 605.128C623.988 603.443 624.538 601.5 624.538 599.516V593.599C624.486 590.815 623.354 588.162 621.387 586.21C619.419 584.258 616.77 583.166 614.013 583.166C611.255 583.166 608.607 584.258 606.638 586.21C604.671 588.162 603.539 590.815 603.487 593.599V599.516C603.485 601.498 604.033 603.442 605.067 605.126C606.103 606.81 607.585 608.168 609.345 609.045V613.431C609.345 614.164 609.057 614.865 608.544 615.384C608.032 615.902 607.336 616.193 606.61 616.193H605.392C595.362 616.193 586.945 622.634 585.258 635.754" stroke="#006B99" stroke-width="3.23435" stroke-linecap="round" stroke-linejoin="round"/>
<path d="M877.148 499.016H874.606H814.766" stroke="#006B99" stroke-width="3.23435" stroke-linecap="round" stroke-linejoin="round"/>
<path d="M877.148 570.146H874.606H814.766" stroke="#006B99" stroke-width="3.23435" stroke-linecap="round" stroke-linejoin="round"/>
<path d="M814.87 497.524C814.692 494.365 815.17 491.206 816.269 488.245C817.37 485.284 819.069 482.587 821.258 480.326C823.447 478.064 826.079 476.288 828.985 475.111C831.891 473.935 835.008 473.382 838.138 473.489C838.867 473.487 839.565 473.197 840.085 472.679C840.597 472.161 840.885 471.46 840.887 470.727V466.334C839.125 465.458 837.641 464.1 836.604 462.416C835.566 460.732 835.016 458.789 835.014 456.805V450.884C835.014 448.064 836.123 445.36 838.098 443.367C840.071 441.372 842.749 440.252 845.541 440.252C848.333 440.252 851.011 441.372 852.986 443.367C854.961 445.36 856.069 448.064 856.069 450.884V456.805C856.068 458.789 855.517 460.732 854.48 462.416C853.441 464.1 851.957 465.458 850.195 466.334V470.709C850.198 471.443 850.49 472.146 851.005 472.663C851.521 473.181 852.218 473.472 852.946 473.47H854.148C865.401 473.47 874.606 481.548 874.606 498.044" stroke="#006B99" stroke-width="3.23435" stroke-linecap="round" stroke-linejoin="round"/>
<path d="M814.869 568.221C814.692 565.063 815.167 561.901 816.266 558.938C817.365 555.976 819.063 553.276 821.254 551.014C823.443 548.752 826.074 546.974 828.982 545.796C831.889 544.619 835.008 544.066 838.139 544.172C838.869 544.172 839.568 543.879 840.085 543.358C840.598 542.842 840.887 542.14 840.888 541.408V537.037C839.126 536.159 837.641 534.802 836.604 533.116C835.566 531.432 835.016 529.488 835.014 527.503V521.586C835.014 518.766 836.124 516.062 838.098 514.069C840.073 512.074 842.751 510.954 845.542 510.954C848.334 510.954 851.012 512.074 852.986 514.069C854.961 516.062 856.069 518.766 856.069 521.586V527.515C856.069 529.499 855.519 531.443 854.481 533.129C853.443 534.813 851.959 536.171 850.197 537.047V541.397C850.2 542.131 850.491 542.834 851.006 543.352C851.521 543.871 852.218 544.161 852.946 544.161H854.15C865.401 544.161 874.606 552.24 874.606 568.736" stroke="#006B99" stroke-width="3.23435" stroke-linecap="round" stroke-linejoin="round"/>
<path d="M814.869 640.234C814.691 637.076 815.167 633.913 816.265 630.951C817.364 627.987 819.063 625.288 821.252 623.024C823.441 620.76 826.074 618.983 828.982 617.806C831.889 616.627 835.008 616.074 838.139 616.182C838.499 616.183 838.856 616.112 839.189 615.975C839.522 615.836 839.826 615.633 840.08 615.377C840.336 615.12 840.538 614.816 840.677 614.479C840.816 614.144 840.887 613.784 840.888 613.421V609.046C839.126 608.169 837.641 606.812 836.604 605.128C835.566 603.443 835.016 601.5 835.014 599.516V593.599C835.014 590.779 836.124 588.075 838.098 586.08C840.073 584.087 842.75 582.967 845.542 582.967C848.334 582.967 851.012 584.087 852.987 586.08C854.96 588.075 856.07 590.779 856.07 593.599V599.516C856.069 601.5 855.519 603.443 854.481 605.128C853.442 606.812 851.959 608.169 850.197 609.046V613.431C850.2 614.165 850.491 614.868 851.006 615.386C851.521 615.904 852.219 616.194 852.946 616.193H854.15C864.18 616.193 872.608 622.634 874.294 635.755" stroke="#006B99" stroke-width="3.23435" stroke-linecap="round" stroke-linejoin="round"/>
<path d="M814.611 414.579V367.35V347.413H1092.61V367.35V534.706H890.112" stroke="#006B99" stroke-width="3.23435" stroke-linecap="round" stroke-linejoin="round"/>
<path d="M814.611 367.351H1092.61" stroke="#006B99" stroke-width="3.23435" stroke-linecap="round" stroke-linejoin="round"/>
<path d="M832.566 358.202C832.568 359.123 832.299 360.023 831.794 360.79C831.288 361.556 830.57 362.154 829.726 362.508C828.885 362.862 827.958 362.955 827.064 362.777C826.168 362.598 825.346 362.156 824.701 361.505C824.056 360.855 823.615 360.025 823.436 359.123C823.257 358.219 823.349 357.282 823.695 356.431C824.044 355.579 824.634 354.852 825.393 354.34C826.15 353.827 827.041 353.554 827.953 353.552C828.558 353.552 829.158 353.671 829.717 353.905C830.277 354.138 830.786 354.479 831.214 354.912C831.643 355.343 831.982 355.856 832.215 356.42C832.446 356.984 832.566 357.59 832.566 358.202Z" stroke="#006B99" stroke-width="3.23435" stroke-linecap="round" stroke-linejoin="round"/>
<path d="M850.702 358.202C850.704 359.123 850.434 360.022 849.93 360.79C849.424 361.556 848.706 362.154 847.863 362.508C847.021 362.86 846.094 362.955 845.2 362.777C844.306 362.598 843.484 362.156 842.838 361.507C842.192 360.856 841.752 360.027 841.573 359.124C841.394 358.222 841.483 357.285 841.83 356.434C842.179 355.583 842.768 354.855 843.524 354.342C844.283 353.829 845.173 353.554 846.085 353.552C846.691 353.551 847.291 353.67 847.85 353.903C848.41 354.136 848.919 354.478 849.347 354.91C849.777 355.342 850.117 355.855 850.349 356.42C850.582 356.984 850.702 357.59 850.702 358.202Z" stroke="#006B99" stroke-width="3.23435" stroke-linecap="round" stroke-linejoin="round"/>
<path d="M868.849 358.202C868.851 359.123 868.581 360.023 868.075 360.79C867.57 361.556 866.851 362.154 866.01 362.508C865.168 362.862 864.24 362.955 863.346 362.777C862.451 362.598 861.628 362.156 860.984 361.505C860.338 360.855 859.897 360.025 859.718 359.123C859.539 358.219 859.63 357.282 859.979 356.431C860.327 355.58 860.916 354.852 861.675 354.34C862.431 353.827 863.324 353.554 864.235 353.552C864.841 353.551 865.441 353.67 866 353.903C866.56 354.136 867.069 354.478 867.497 354.91C867.926 355.342 868.265 355.855 868.498 356.42C868.729 356.984 868.849 357.59 868.849 358.202Z" stroke="#006B99" stroke-width="3.23435" stroke-linecap="round" stroke-linejoin="round"/>
<path d="M569.757 481.027H552.205H531.89H436.102H398.458H386.815V235.115V215.174H768.524V235.115V414.579" stroke="#006B99" stroke-width="3.23435" stroke-linecap="round" stroke-linejoin="round"/>
<path d="M386.815 235.116H524.111H531.89H768.524" stroke="#006B99" stroke-width="3.23435" stroke-linecap="round" stroke-linejoin="round"/>
<path d="M404.758 225.966C404.76 226.887 404.49 227.788 403.986 228.554C403.48 229.32 402.76 229.918 401.919 230.272C401.077 230.626 400.15 230.719 399.255 230.541C398.36 230.362 397.539 229.92 396.893 229.269C396.247 228.619 395.807 227.789 395.629 226.887C395.45 225.983 395.539 225.046 395.888 224.195C396.236 223.344 396.826 222.616 397.583 222.104C398.342 221.591 399.233 221.318 400.144 221.316C401.367 221.316 402.538 221.805 403.405 222.676C404.27 223.548 404.757 224.731 404.758 225.966Z" stroke="#006B99" stroke-width="3.23435" stroke-linecap="round" stroke-linejoin="round"/>
<path d="M422.908 225.966C422.91 226.887 422.64 227.786 422.135 228.552C421.63 229.32 420.91 229.918 420.069 230.271C419.227 230.625 418.3 230.719 417.406 230.541C416.512 230.362 415.689 229.92 415.043 229.271C414.398 228.62 413.958 227.791 413.779 226.888C413.598 225.986 413.688 225.05 414.036 224.198C414.383 223.347 414.974 222.619 415.73 222.106C416.487 221.593 417.379 221.318 418.291 221.316C418.896 221.316 419.495 221.435 420.055 221.669C420.614 221.902 421.123 222.244 421.552 222.675C421.982 223.107 422.321 223.62 422.554 224.184C422.787 224.748 422.907 225.354 422.908 225.966Z" stroke="#006B99" stroke-width="3.23435" stroke-linecap="round" stroke-linejoin="round"/>
<path d="M441.054 225.966C441.055 226.887 440.787 227.788 440.282 228.554C439.776 229.32 439.057 229.918 438.214 230.272C437.372 230.626 436.446 230.719 435.552 230.541C434.656 230.362 433.834 229.92 433.188 229.269C432.544 228.619 432.103 227.789 431.924 226.887C431.745 225.983 431.836 225.046 432.183 224.195C432.532 223.344 433.122 222.616 433.881 222.104C434.637 221.591 435.529 221.318 436.441 221.316C437.662 221.316 438.835 221.805 439.7 222.676C440.565 223.548 441.052 224.731 441.054 225.966Z" stroke="#006B99" stroke-width="3.23435" stroke-linecap="round" stroke-linejoin="round"/>
<path d="M695.673 736.443L581.554 654.833V659.336C581.552 662.398 582.28 665.417 583.674 668.138C585.069 670.858 587.088 673.2 589.566 674.968L725.152 771.934C730.804 775.965 737.55 778.133 744.469 778.139H1023.49C1025.29 778.141 1027.07 777.784 1028.73 777.089C1030.39 776.395 1031.9 775.376 1033.18 774.092C1034.45 772.808 1035.46 771.285 1036.14 769.607C1036.83 767.929 1037.19 766.13 1037.19 764.315V763.737" stroke="#006B99" stroke-width="3.23435" stroke-linecap="round" stroke-linejoin="round"/>
<path d="M881.645 652.502L1037.17 763.724H733.823" stroke="#006B99" stroke-width="3.23435" stroke-linecap="round" stroke-linejoin="round"/>
<path d="M858.388 401.29H1048.82" stroke="#006B99" stroke-width="3.23435" stroke-linecap="round" stroke-linejoin="round"/>
<path d="M892.093 444.495H1048.82" stroke="#006B99" stroke-width="3.23435" stroke-linecap="round" stroke-linejoin="round"/>
<path d="M892.093 487.701H1048.82" stroke="#006B99" stroke-width="3.23435" stroke-linecap="round" stroke-linejoin="round"/>
<path d="M497.718 599.91H560.772" stroke="#006B99" stroke-width="3.23435" stroke-linecap="round" stroke-linejoin="round"/>
<path d="M899.587 599.91H988.564" stroke="#006B99" stroke-width="3.23435" stroke-linecap="round" stroke-linejoin="round"/>
<path d="M695.674 736.441L733.824 763.724V776.045" stroke="#006B99" stroke-width="3.23435" stroke-linecap="round" stroke-linejoin="round"/>
<path d="M805.122 753.253L775.605 732.146H894" stroke="#F7CEDC" stroke-width="3.23435" stroke-linecap="round" stroke-linejoin="round"/>
<path d="M894.299 732.146L923.816 753.253H805.421" stroke="#006B99" stroke-width="3.23435" stroke-linecap="round" stroke-linejoin="round"/>
<path d="M953.567 721.881H871.973H707.263L651.39 681.92L630.052 666.653H720.796H876.356L929.596 704.742L953.567 721.881Z" stroke="#006B99" stroke-width="3.23435" stroke-linecap="round" stroke-linejoin="round"/>
<path d="M651.388 681.919H742.13H864.26" stroke="#006B99" stroke-width="3.23435" stroke-linecap="round" stroke-linejoin="round"/>
<path d="M716.206 705.49H849.728H929.078" stroke="#006B99" stroke-width="3.23435" stroke-linecap="round" stroke-linejoin="round"/>
<path d="M720.797 666.653L742.134 681.92L764.377 697.832" stroke="#006B99" stroke-width="3.23435" stroke-linecap="round" stroke-linejoin="round"/>
<path d="M828.393 690.223L849.73 705.488L871.973 721.395" stroke="#006B99" stroke-width="3.23435" stroke-linecap="round" stroke-linejoin="round"/>
<path d="M760.76 553.777C764.3 553.778 767.802 554.483 771.072 555.85C774.341 557.22 777.311 559.224 779.812 561.752C782.314 564.279 784.298 567.28 785.652 570.582C787.004 573.884 787.701 577.423 787.699 580.997C787.707 581.085 787.707 581.171 787.699 581.259C787.699 588.474 784.862 595.391 779.812 600.494C774.761 605.594 767.91 608.46 760.768 608.46C753.625 608.46 746.776 605.594 741.725 600.494C736.673 595.391 733.836 588.474 733.836 581.259C733.829 581.171 733.829 581.085 733.836 580.997C733.835 573.782 736.67 566.861 741.719 561.756C746.768 556.652 753.617 553.783 760.76 553.777Z" stroke="#006B99" stroke-width="3.23435" stroke-linecap="round" stroke-linejoin="round"/>
<path d="M760.762 536.528V553.782V581.264V608.209V623.386" stroke="#006B99" stroke-width="3.23435" stroke-linecap="round" stroke-linejoin="round"/>
<path d="M803.76 581.264H787.685H760.762H733.838H717.76" stroke="#006B99" stroke-width="3.23435" stroke-linecap="round" stroke-linejoin="round"/>
<path d="M662.693 329.71C662.858 322.607 665.767 315.85 670.801 310.886C675.833 305.921 682.588 303.141 689.624 303.141C696.659 303.141 703.415 305.921 708.448 310.886C713.48 315.85 716.391 322.607 716.556 329.71C716.562 329.803 716.562 329.896 716.556 329.988C716.491 336.398 714.188 342.579 710.052 347.441C705.917 352.302 700.214 355.535 693.95 356.567C687.687 357.598 681.262 356.363 675.813 353.08C670.361 349.796 666.234 344.674 664.156 338.617" stroke="#006B99" stroke-width="3.23435" stroke-linecap="round" stroke-linejoin="round"/>
<path d="M689.632 285.246V302.504V329.987V356.917V372.105" stroke="#006B99" stroke-width="3.23435" stroke-linecap="round" stroke-linejoin="round"/>
<path d="M664.027 329.987H662.693H646.631" stroke="#006B99" stroke-width="3.23435" stroke-linecap="round" stroke-linejoin="round"/>
<path d="M732.629 329.987H716.556H689.631H673.022" stroke="#006B99" stroke-width="3.23435" stroke-linecap="round" stroke-linejoin="round"/>
<path d="M661.964 473.876V491.46L704.602 486.406L755.367 480.385V502.799V511.949L746.396 507.431L704.602 486.406L671.726 469.857L661.964 464.947V473.876Z" stroke="#006B99" stroke-width="3.23435" stroke-linecap="round" stroke-linejoin="round"/>
<path d="M661.964 473.866C661.964 473.866 669.82 475.831 671.726 469.847" stroke="#006B99" stroke-width="3.23435" stroke-linecap="round" stroke-linejoin="round"/>
<path d="M746.385 507.433C747.309 505.897 748.636 504.65 750.221 503.833C751.804 503.015 753.582 502.657 755.356 502.799" stroke="#006B99" stroke-width="3.23435" stroke-linecap="round" stroke-linejoin="round"/>
<path d="M564.25 256.078V273.673L606.899 268.608L657.649 262.583V285V294.151L648.678 289.633L606.899 268.608L574.009 252.059L564.25 247.148V256.078Z" stroke="#006B99" stroke-width="3.23435" stroke-linecap="round" stroke-linejoin="round"/>
<path d="M564.25 256.077C564.25 256.077 572.117 258.039 574.009 252.058" stroke="#006B99" stroke-width="3.23435" stroke-linecap="round" stroke-linejoin="round"/>
<path d="M648.69 289.652C649.614 288.116 650.941 286.87 652.526 286.051C654.109 285.234 655.887 284.876 657.661 285.019" stroke="#006B99" stroke-width="3.23435" stroke-linecap="round" stroke-linejoin="round"/>
<path d="M717.706 568.447H686.102V555.353V536.527H704.747H717.706V568.447Z" stroke="#006B99" stroke-width="3.23435" stroke-linecap="round" stroke-linejoin="round"/>
<path d="M704.748 555.353H686.103H673.143V523.433H704.748V536.527V555.353Z" stroke="#006B99" stroke-width="3.23435" stroke-linecap="round" stroke-linejoin="round"/>
<path d="M673.143 523.433L686.103 536.527" stroke="#006B99" stroke-width="3.23435" stroke-linecap="round" stroke-linejoin="round"/>
<path d="M704.748 523.433L717.709 536.527" stroke="#006B99" stroke-width="3.23435" stroke-linecap="round" stroke-linejoin="round"/>
<path d="M704.748 555.353L717.709 568.447" stroke="#006B99" stroke-width="3.23435" stroke-linecap="round" stroke-linejoin="round"/>
<path d="M673.143 555.353L686.103 568.447" stroke="#006B99" stroke-width="3.23435" stroke-linecap="round" stroke-linejoin="round"/>
<path d="M601.062 362.629H569.456V349.535V330.708H588.101H601.062V362.629Z" stroke="#006B99" stroke-width="3.23435" stroke-linecap="round" stroke-linejoin="round"/>
<path d="M588.103 349.533H569.458H556.497V317.613H588.103V330.707V349.533Z" stroke="#006B99" stroke-width="3.23435" stroke-linecap="round" stroke-linejoin="round"/>
<path d="M556.497 317.613L569.458 330.707" stroke="#006B99" stroke-width="3.23435" stroke-linecap="round" stroke-linejoin="round"/>
<path d="M588.103 317.613L601.063 330.707" stroke="#006B99" stroke-width="3.23435" stroke-linecap="round" stroke-linejoin="round"/>
<path d="M588.103 349.533L601.063 362.627" stroke="#006B99" stroke-width="3.23435" stroke-linecap="round" stroke-linejoin="round"/>
<path d="M556.497 349.533L569.458 362.627" stroke="#006B99" stroke-width="3.23435" stroke-linecap="round" stroke-linejoin="round"/>
<path d="M671.846 609.282C671.846 609.282 666.541 611.458 666.274 615.254C666.006 619.051 670.85 619.063 673.001 616.891C673.081 614.3 672.811 611.71 672.199 609.191C671.979 608.324 671.661 607.484 671.251 606.69C669.242 602.893 665.872 603.429 664.665 606.01" stroke="#006B99" stroke-width="3.23435" stroke-linecap="round" stroke-linejoin="round"/>
<path d="M774.413 452.105C774.413 452.105 769.108 454.277 768.841 458.087C768.573 461.899 773.417 461.899 775.569 459.724C775.648 457.13 775.378 454.535 774.766 452.013C774.549 451.15 774.231 450.315 773.82 449.527C771.809 445.715 768.441 446.267 767.234 448.844" stroke="#006B99" stroke-width="3.23435" stroke-linecap="round" stroke-linejoin="round"/>
<path d="M679.619 608.209H686.102" stroke="#006B99" stroke-width="3.23435" stroke-linecap="round" stroke-linejoin="round"/>
<path d="M679.619 613.447H686.102" stroke="#006B99" stroke-width="3.23435" stroke-linecap="round" stroke-linejoin="round"/>
<path d="M692.151 606.572C692.475 602.445 702.226 602.371 700.347 609.518C699.061 614.377 692.346 618.358 692.346 618.358H703.341" stroke="#006B99" stroke-width="3.23435" stroke-linecap="round" stroke-linejoin="round"/>
<path d="M736.986 449.181C737.321 445.073 747.072 444.98 745.158 452.116C743.877 456.992 737.173 460.966 737.173 460.966H748.154" stroke="#006B99" stroke-width="3.23435" stroke-linecap="round" stroke-linejoin="round"/>
<path d="M714.521 443.895C714.74 441.131 721.289 441.078 720.018 445.873C719.16 449.118 714.661 451.8 714.661 451.8H722.024" stroke="#006B99" stroke-width="3.23435" stroke-linecap="round" stroke-linejoin="round"/>
<path d="M710.502 615.96C714.96 621.171 721.768 617.885 719.459 612.583C717.148 607.282 710.918 611.075 710.502 615.96Z" stroke="#006B99" stroke-width="3.23435" stroke-linecap="round" stroke-linejoin="round"/>
<path d="M714.598 601.572C711.928 604.439 706.054 610.737 710.512 615.959" stroke="#006B99" stroke-width="3.23435" stroke-linecap="round" stroke-linejoin="round"/>
<path d="M756.883 448.109V452.289V456.464" stroke="#006B99" stroke-width="3.23435" stroke-linecap="round" stroke-linejoin="round"/>
<path d="M752.27 452.287H756.884H761.164" stroke="#006B99" stroke-width="3.23435" stroke-linecap="round" stroke-linejoin="round"/>
<path d="M733.328 441.877C729.506 443.055 726.33 450.401 727.522 455.571C727.839 457.776 728.718 459.859 730.072 461.619C731.424 463.379 733.206 464.754 735.241 465.611" stroke="#006B99" stroke-width="3.23435" stroke-linecap="round" stroke-linejoin="round"/>
<path d="M778.445 441.877C782.268 443.055 785.444 450.401 784.251 455.571C783.93 457.773 783.051 459.852 781.701 461.611C780.35 463.369 778.571 464.744 776.539 465.604" stroke="#006B99" stroke-width="3.23435" stroke-linecap="round" stroke-linejoin="round"/>
<path d="M524.111 235.116V379.818" stroke="#006B99" stroke-width="3.23435" stroke-linecap="round" stroke-linejoin="round"/>
<path d="M531.89 235.116V382.438" stroke="#006B99" stroke-width="3.23435" stroke-linecap="round" stroke-linejoin="round"/>
<path d="M437.243 437.175V443.801L398.458 442.245L394.193 442.076C394.193 442.076 394.48 411.539 402.463 397.73C405.448 393.167 409.619 389.522 414.52 387.198C421.7 383.635 429.354 381.143 437.243 379.803C448.67 386.744 461.839 390.199 475.163 389.754C496.412 388.601 504.29 379.803 504.29 379.803C510.854 379.06 517.488 379.257 523.997 380.392C526.655 380.878 529.245 381.691 531.708 382.813C533.586 383.663 535.316 384.812 536.831 386.218C544.221 393.964 550.702 402.543 556.147 411.788L552.196 414.563L535.39 426.364" stroke="#006B99" stroke-width="3.23435" stroke-linecap="round" stroke-linejoin="round"/>
<path d="M398.458 442.245V481.027" stroke="#006B99" stroke-width="3.23435" stroke-linecap="round" stroke-linejoin="round"/>
<path d="M437.244 443.803L436.104 481.027" stroke="#006B99" stroke-width="3.23435" stroke-linecap="round" stroke-linejoin="round"/>
<path d="M529.672 418.193C529.672 418.193 532.344 421.546 535.39 426.364C539.372 432.685 543.974 441.525 543.985 448.608C543.9 454.708 542.628 460.731 540.24 466.336C538.14 471.463 535.328 476.264 531.89 480.592" stroke="#006B99" stroke-width="3.23435" stroke-linecap="round" stroke-linejoin="round"/>
<path d="M500.234 442.245C500.234 442.245 501.219 460.809 494.362 469.148" stroke="#006B99" stroke-width="3.23435" stroke-linecap="round" stroke-linejoin="round"/>
<path d="M497.759 328.888C496.58 328.371 495.325 328.051 494.046 327.943C492.84 327.688 491.591 327.765 490.427 328.168" stroke="#006B99" stroke-width="3.23435" stroke-linecap="round" stroke-linejoin="round"/>
<path d="M470.497 327.544C471.946 327.183 473.418 326.92 474.903 326.758C476.111 326.52 477.362 326.615 478.521 327.034" stroke="#006B99" stroke-width="3.23435" stroke-linecap="round" stroke-linejoin="round"/>
<path d="M488.736 323.882C488.237 324.946 487.984 326.112 487.994 327.289C488.005 328.466 488.281 329.625 488.799 330.681C489.565 333.273 492.017 336.035 491.587 338.484C491.155 340.934 486.686 341.912 484.068 341.192" stroke="#006B99" stroke-width="3.23435" stroke-linecap="round" stroke-linejoin="round"/>
<path d="M475.877 365.206C471.944 363.92 468.216 362.068 464.808 359.705" stroke="#006B99" stroke-width="3.23435" stroke-linecap="round" stroke-linejoin="round"/>
<path d="M500.61 344.859C499.458 347.334 498.24 349.27 497.511 351.052C496.269 355.334 494.382 359.396 491.913 363.095C491.181 363.971 490.301 364.708 489.313 365.272C488.385 365.804 487.366 366.153 486.308 366.303C483.403 366.646 480.462 366.437 477.635 365.688C477.089 365.556 476.52 365.414 475.988 365.246" stroke="#006B99" stroke-width="3.23435" stroke-linecap="round" stroke-linejoin="round"/>
<path d="M502.113 324.055C501.776 325.039 501.478 325.691 501.478 325.691C503.075 329.151 503.669 332.995 503.191 336.781C502.693 339.581 501.817 342.299 500.59 344.859" stroke="#006B99" stroke-width="3.23435" stroke-linecap="round" stroke-linejoin="round"/>
<path d="M467.23 322.851C470.497 320.791 474.334 319.849 478.173 320.166C482.371 320.886 482.605 322.352 482.631 322.417" stroke="#006B99" stroke-width="3.23435" stroke-linecap="round" stroke-linejoin="round"/>
<path d="M500.74 320.585C499.509 320.464 498.267 320.54 497.058 320.805C495.256 321.152 493.483 321.643 491.758 322.273" stroke="#006B99" stroke-width="3.23435" stroke-linecap="round" stroke-linejoin="round"/>
<path d="M495.142 346.132C494.73 346.429 494.292 346.689 493.834 346.905C492.038 347.664 490.116 348.07 488.169 348.098C484.111 347.922 480.084 347.293 476.162 346.222C475.319 346.012 474.736 345.847 474.543 345.802" stroke="#006B99" stroke-width="3.23435" stroke-linecap="round" stroke-linejoin="round"/>
<path d="M474.468 345.789C474.468 345.789 474.687 345.973 475.04 346.285C476.895 347.887 478.853 349.366 480.898 350.712C481.996 351.525 483.263 352.07 484.604 352.307C485.944 352.543 487.319 352.463 488.625 352.073C491.067 350.421 493.262 348.424 495.145 346.143" stroke="#006B99" stroke-width="3.23435" stroke-linecap="round" stroke-linejoin="round"/>
<path d="M489.45 365.481L489.697 370.065L489.735 370.786L489.971 375.26" stroke="#006B99" stroke-width="3.23435" stroke-linecap="round" stroke-linejoin="round"/>
<path d="M504.29 379.819L489.966 375.26" stroke="#006B99" stroke-width="3.23435" stroke-linecap="round" stroke-linejoin="round"/>
<path d="M455.731 359.773L455.288 372.289L437.243 379.818" stroke="#006B99" stroke-width="3.23435" stroke-linecap="round" stroke-linejoin="round"/>
<path d="M447.407 329.451C447.407 329.451 442.158 324.055 438.892 327.683C438.464 328.171 438.112 328.723 437.852 329.319C434.223 337.175 441.976 345.802 447.882 347.951" stroke="#006B99" stroke-width="3.23435" stroke-linecap="round" stroke-linejoin="round"/>
<path d="M438.893 327.683V327.713" stroke="#006B99" stroke-width="3.23435" stroke-linecap="round" stroke-linejoin="round"/>
<path d="M458.868 356.748C459.631 355.631 460.092 354.331 460.204 352.977C460.319 351.625 460.08 350.266 459.514 349.034C459.138 348.175 458.586 347.406 457.893 346.777C457.201 346.146 456.386 345.672 455.501 345.383C454.614 345.094 453.679 344.998 452.754 345.099C451.829 345.201 450.934 345.499 450.131 345.973C449.206 346.387 448.428 347.078 447.902 347.95C447.361 348.84 447.025 349.841 446.917 350.881C446.807 351.919 446.932 352.968 447.278 353.953C447.762 355.598 448.804 357.02 450.222 357.965C451.639 358.913 453.342 359.324 455.031 359.127C455.083 359.127 455.134 359.127 455.186 359.127C455.933 359.018 456.646 358.749 457.281 358.339C457.917 357.928 458.458 357.386 458.868 356.748Z" stroke="#006B99" stroke-width="3.23435" stroke-linecap="round" stroke-linejoin="round"/>
<path d="M495.45 358.058C496.882 358.776 498.496 359.037 500.078 358.809C504.535 358.245 506.883 352.055 504.774 347.809C504.143 346.458 503.151 345.315 501.905 344.51" stroke="#006B99" stroke-width="3.23435" stroke-linecap="round" stroke-linejoin="round"/>
<path d="M475.023 346.274C475.023 346.274 475.45 346.248 476.138 346.222C478.991 346.052 486.405 345.684 487.712 345.802C489.336 345.933 493.808 346.926 493.808 346.926" stroke="#006B99" stroke-width="3.23435" stroke-linecap="round" stroke-linejoin="round"/>
<path d="M475.877 365.206L476.007 365.248C477.147 365.679 485.728 368.86 489.629 370.064" stroke="#006B99" stroke-width="3.23435" stroke-linecap="round" stroke-linejoin="round"/>
<path d="M467.577 304.074C467.524 303.616 467.41 300.408 475.378 301.718C481.216 302.999 486.666 305.671 491.272 309.51L491.311 309.547" stroke="#006B99" stroke-width="3.23435" stroke-linecap="round" stroke-linejoin="round"/>
<path d="M451.907 292.736C451.907 292.736 465.751 291.937 467.58 304.073C467.586 304.096 467.586 304.119 467.58 304.141" stroke="#006B99" stroke-width="3.23435" stroke-linecap="round" stroke-linejoin="round"/>
<path d="M447.722 329.372C464.809 335.877 466.738 311.446 467.581 304.141C467.581 304.141 484.296 305.972 489.72 308.67C490.241 308.932 490.76 309.221 491.266 309.51C496.571 312.658 500.491 317.727 502.232 323.689C502.232 323.689 508.87 316.803 500.185 298.926C496.975 292.804 491.912 287.878 485.733 284.869C479.554 281.862 472.584 280.929 465.842 282.209C465.153 282.36 464.441 282.535 463.703 282.729C457.257 284.2 451.232 287.144 446.087 291.333C435.936 302.892 436.726 316.901 436.08 318.814C429.922 337.156 407.782 368.338 414.508 387.209" stroke="#006B99" stroke-width="3.23435" stroke-linecap="round" stroke-linejoin="round"/>
<path d="M628.807 368.833C631.138 367.938 633.348 366.745 635.378 365.283C635.965 364.827 636.462 364.264 636.843 363.622C637.071 363.268 637.216 362.868 637.263 362.449C637.311 362.031 637.263 361.606 637.122 361.21C636.98 360.813 636.747 360.456 636.445 360.166C636.143 359.875 635.777 359.659 635.378 359.537C634.804 359.376 634.208 359.314 633.614 359.353C628.131 360.248 622.833 362.062 617.942 364.721C616.716 365.331 615.685 366.28 614.969 367.456L603.859 388.841L591.886 414.437" stroke="#006B99" stroke-width="3.23435" stroke-linecap="round" stroke-linejoin="round"/>
<path d="M624.335 370.537C624.335 370.537 625.356 370.195 626.808 369.631C627.406 369.407 628.078 369.132 628.792 368.845" stroke="#006B99" stroke-width="3.23435" stroke-linecap="round" stroke-linejoin="round"/>
<path d="M552.205 414.579L569.757 439.048" stroke="#006B99" stroke-width="3.23435" stroke-linecap="round" stroke-linejoin="round"/>
<path d="M540.243 466.334L552.208 480.591" stroke="#006B99" stroke-width="3.23435" stroke-linecap="round" stroke-linejoin="round"/>
<path d="M620.561 414.437L626.134 403.006C629.231 402.918 632.27 402.13 635.026 400.702C637.783 399.274 640.188 397.241 642.066 394.751C649.893 385.796 651.747 379.548 648.456 377.26C645.164 374.972 638.344 378.097 636.386 381.841C634.428 385.585 635.933 390.692 645.436 383.518" stroke="#006B99" stroke-width="3.23435" stroke-linecap="round" stroke-linejoin="round"/>
<path d="M648.459 377.254C648.459 377.254 652.776 373.298 651.374 369.375C649.974 365.45 642.548 367.345 637.894 370.163C635.867 371.404 634.094 373.026 632.671 374.942C630.594 377.887 630.443 381.016 636.386 381.826" stroke="#006B99" stroke-width="3.23435" stroke-linecap="round" stroke-linejoin="round"/>
<path d="M651.373 369.381C651.373 369.381 651.997 365.405 646.708 362.377C643.168 360.348 637.268 363.687 637.268 363.687" stroke="#006B99" stroke-width="3.23435" stroke-linecap="round" stroke-linejoin="round"/>
<path d="M628.809 368.833C628.627 369.121 626.023 373.13 630.403 374.228C630.929 374.364 631.468 374.446 632.011 374.475" stroke="#006B99" stroke-width="3.23435" stroke-linecap="round" stroke-linejoin="round"/>
<path d="M648.265 355.583L664.156 338.614L672.606 329.608L680.78 320.889C681.301 320.323 681.577 319.571 681.549 318.798C681.522 318.024 681.19 317.295 680.629 316.768C680.068 316.243 679.323 315.963 678.557 315.991C677.792 316.018 677.069 316.354 676.548 316.921L664.29 330.209L642.718 353.579" stroke="#006B99" stroke-width="3.23435" stroke-linecap="round" stroke-linejoin="round"/>
<path d="M626.914 369.917L608.403 389.689C608.129 389.99 607.919 390.347 607.79 390.737C607.662 391.126 607.616 391.539 607.656 391.947C607.696 392.354 607.822 392.75 608.024 393.105C608.228 393.462 608.502 393.77 608.83 394.011C609.327 394.368 609.92 394.559 610.529 394.558C610.926 394.558 611.319 394.476 611.681 394.315C612.045 394.156 612.372 393.921 612.643 393.628L629.923 375.169" stroke="#006B99" stroke-width="3.23435" stroke-linecap="round" stroke-linejoin="round"/>
<path d="M646.711 362.376C646.711 362.376 649.755 358.541 647.33 355.714C646.967 355.309 646.547 354.961 646.086 354.677C645.07 354.029 643.905 353.66 642.705 353.604C640.835 353.716 639.024 354.3 637.436 355.301C635.848 356.304 634.535 357.693 633.616 359.34" stroke="#006B99" stroke-width="3.23435" stroke-linecap="round" stroke-linejoin="round"/>
</g>
<defs>
<clipPath id="clip0_208_113">
<rect width="1480" height="992" fill="white"/>
</clipPath>
</defs>
</svg>
